<?xml version="1.0" standalone="no"?>
<!DOCTYPE svg PUBLIC "-//W3C//DTD SVG 1.1//EN" "http://www.w3.org/Graphics/SVG/1.1/DTD/svg11.dtd" >
<svg xmlns="http://www.w3.org/2000/svg">
<metadata>Generated by IcoMoon</metadata>
<defs>
<font id="ra" horiz-adv-x="512">
<font-face units-per-em="512" ascent="480" descent="-32" />
<missing-glyph horiz-adv-x="512" />
<glyph unicode="&#x20;" d="" horiz-adv-x="256" />
<glyph unicode="&#xe600;" d="M389.361 402.499h-175.279c-43.995 0-79.988-36.33-79.988-80.325v-1.957l32.349-0.378v2.334c0 25.993 21.647 47.976 47.638 47.976h175.279c26.006 0 46.060-21.984 46.060-47.976v-94.468c0-25.101-19.15-45.574-43.901-46.964l0.202-32.767c42.942 1.214 78.084 36.492 78.084 79.745v94.468c0 43.981-36.438 80.311-80.447 80.311zM311.574 293.617l-213.025 2.455c-31.579 0.378-57.477-24.926-57.841-56.505l-1.322-114.82c-0.378-31.553 24.939-57.464 56.505-57.8l142.498-1.66 77.234-39.515c4.899-2.524 10.796-1.998 15.223 1.269 4.426 3.293 6.599 9.096 5.627 14.495l-4.17 23.266c18.664 0 33.954 14.426 34.157 33.091l1.606 137.91c0.392 31.565-24.913 57.464-56.492 57.815zM285.353 131.524h-163.713c-9.028 0-16.37 7.125-16.37 16.168 0 9.055 7.328 16.181 16.37 16.181h163.713c9.055 0 16.383-7.125 16.383-16.181 0-9.043-7.328-16.168-16.383-16.168zM285.353 196.221h-163.713c-9.028 0-16.37 7.113-16.37 16.181 0 9.055 7.328 16.181 16.37 16.181h163.713c9.055 0 16.383-7.125 16.383-16.181s-7.328-16.181-16.383-16.181z" />
<glyph unicode="&#xe601;" d="M540.311 173.762c0 9.904-3.524 18.572-10.573 26.003l-204.284 204c-7.238 7.242-16.952 13.382-29.142 18.429s-23.334 7.571-33.431 7.571h-118.858c-9.904 0-18.477-3.623-25.712-10.857-7.242-7.238-10.861-15.809-10.861-25.716v-118.857c0-10.096 2.522-21.234 7.572-33.428s11.194-21.809 18.429-28.858l204.288-204.572c7.049-7.049 15.62-10.573 25.712-10.573 9.907 0 18.576 3.524 26.003 10.573l140.288 140.572c7.045 7.053 10.569 15.616 10.569 25.712zM224.74 312.479c-7.143-7.144-15.763-10.717-25.859-10.717-10.093 0-18.713 3.573-25.856 10.717s-10.714 15.76-10.714 25.856 3.57 18.716 10.714 25.856c7.143 7.144 15.763 10.717 25.856 10.717 10.096 0 18.716-3.573 25.859-10.717 7.14-7.14 10.714-15.76 10.714-25.856s-3.573-18.712-10.714-25.856zM639.449 199.762l-204.284 204.001c-7.238 7.241-16.952 13.382-29.145 18.428-12.187 5.046-23.331 7.571-33.428 7.571h-64c10.096 0 21.238-2.525 33.428-7.571 12.193-5.050 21.908-11.191 29.145-18.428l204.284-204.001c7.053-7.428 10.58-16.096 10.58-26 0-10.096-3.528-18.66-10.58-25.712l-134.284-134.288c5.719-5.906 10.762-10.188 15.142-12.856s10.002-4.002 16.858-4.002c9.907 0 18.576 3.524 26 10.573l140.284 140.572c7.053 7.053 10.58 15.616 10.58 25.712-0.004 9.904-3.528 18.572-10.58 26z" horiz-adv-x="758" />
<glyph unicode="&#xe602;" d="M584.602 199.765l-204.288 204.001c-7.238 7.241-16.952 13.382-29.142 18.428-12.194 5.046-23.334 7.571-33.431 7.571h-118.858c-9.907 0-18.477-3.623-25.715-10.857-7.238-7.238-10.857-15.809-10.857-25.715v-118.858c0-10.096 2.522-21.234 7.572-33.427s11.19-21.809 18.428-28.858l204.285-204.572c7.049-7.049 15.616-10.573 25.716-10.573 9.9 0 18.572 3.524 26 10.573l140.288 140.572c7.049 7.053 10.569 15.616 10.569 25.712 0 9.904-3.521 18.572-10.566 26.003zM279.598 312.479c-7.147-7.144-15.764-10.717-25.859-10.717-10.093 0-18.713 3.573-25.856 10.717s-10.714 15.76-10.714 25.856 3.57 18.716 10.714 25.856c7.143 7.144 15.763 10.717 25.856 10.717 10.096 0 18.716-3.573 25.859-10.717 7.14-7.14 10.714-15.76 10.714-25.856s-3.57-18.712-10.714-25.856z" horiz-adv-x="758" />
<glyph unicode="&#xe603;" d="M77.353 187.274c-52.492-109.475 146.947-111.221 175.323-180.337 1.823-4.443 2.57-6.668 3.323-6.668s1.493 2.225 3.323 6.668c28.383 69.122 227.821 70.862 175.323 180.337-46.999 98.012-5.401 154.066 9.885 170.12 2.683 2.816 2.95 7.161 0.296 10.005l-47.267 50.78c-1.697 1.817-4.295 2.767-6.865 2.767-1.45 0-2.887-0.303-4.147-0.915-16.877-8.224-34.945-11.139-52.090-11.139-31.404 0-59.709 9.794-71.995 14.738-1.796 0.719-4.134 1.077-6.464 1.077-2.331 0-4.661-0.366-6.47-1.091-12.287-4.943-40.599-14.737-71.995-14.737-17.145 0-35.206 2.916-52.090 11.139-1.26 0.613-2.704 0.915-4.154 0.915-2.57 0-5.168-0.943-6.865-2.767l-47.267-50.78c-2.647-2.845-2.38-7.189 0.303-10.006 15.293-16.039 56.892-72.1 9.892-170.106zM126.001 389.269c15.758-5.682 33.030-8.548 51.534-8.548 32.663 0 61.876 8.893 78.466 15.195 16.589-6.302 45.802-15.195 78.466-15.195 18.504 0 35.783 2.873 51.534 8.548l25.791-27.707c-20.806-29.946-47.436-92.837-2.541-186.462 8.808-18.363 5.626-26.974 4.584-29.805-7.378-20.018-45.070-36.719-78.319-51.457-28.981-12.843-58.624-25.974-79.515-44.929-20.891 18.954-50.541 32.087-79.515 44.929-33.248 14.737-70.939 31.432-78.319 51.457-1.041 2.83-4.218 11.442 4.584 29.805 44.894 93.625 18.265 156.517-2.541 186.462l25.791 27.707zM140.843 205.285c-33.84-75.565 94.724-76.769 113.016-124.48 2.352-6.14 1.929-6.14 4.281 0 18.293 47.711 146.856 48.915 113.016 124.48-30.291 67.651-3.478 106.349 6.373 117.432 1.725 1.944 1.901 4.942 0.19 6.907l-30.467 35.051c-1.711 1.964-4.844 2.45-7.098 1.274-30.812-16.068-67.742-2.795-79.987 2.478-2.324 1-6.013 1-8.344 0-12.244-5.274-49.175-18.553-79.987-2.478-2.254 1.176-5.393 0.69-7.097-1.274l-30.467-35.051c-1.711-1.964-1.536-4.964 0.19-6.907 9.864-11.083 36.677-49.781 6.379-117.432z" />
<glyph unicode="&#xe604;" d="M395.070 383.659h-276.035c-40.864 0.459-76.127-31.701-76.587-72.551v-149.178c-0.486-40.851 32.267-74.387 73.145-74.832l184.401-2.159 99.933-51.108c6.342-3.238 13.995-2.591 19.716 1.633 5.709 4.211 8.529 11.174 7.247 18.178l-5.358 29.488h0.027c24.144 0 45.993 33.968 46.317 58.071v164.28c0.432 40.877-31.957 77.707-72.808 78.179zM249.657 146.342c-13.482 0-22.618 9.865-22.618 23.091 0 13.469 9.419 23.144 22.618 23.144 13.684 0 22.592-9.676 22.874-23.144 0.027-13.185-9.19-23.091-22.875-23.091zM280.211 240.85c-9.393-10.419-13.144-20.338-13.144-31.796v-4.764h-33.455l-0.243 6.721c-0.783 12.983 3.549 26.209 14.966 39.92 8.137 9.663 14.71 17.814 14.71 26.491 0 8.88-5.844 14.71-18.543 15.223-8.381 0-18.529-3.023-25.142-7.598l-8.65 27.707c9.15 5.304 24.399 10.419 42.443 10.419 33.522 0 48.678-18.556 48.678-39.623 0.054-19.339-11.957-32.052-21.62-42.7z" />
<glyph unicode="&#xe605;" d="M48.062 291.838v-157.010h415.882v157.010h-415.882zM443.459 155.308h-374.917v116.050h374.922v-116.050zM146.887 210.405l-22.471-4.152v14.454l22.19-4.439 0.138 0.286-15.171 18.032 12.738 7.301 8.007-21.893h0.292l8.161 21.893 12.59-7.153-15.463-18.181 0.149-0.425 22.748 4.583v-14.454l-22.902 4.004-0.138-0.43 15.601-17.603-12.738-7.44-8.161 22.185-0.281-0.144-8.299-22.041-12.309 7.44 15.309 17.889v0.286zM211.85 210.405l-22.471-4.152v14.454l22.19-4.439 0.138 0.286-15.171 18.032 12.738 7.301 8.007-21.893h0.292l8.161 21.893 12.59-7.153-15.463-18.181 0.149-0.425 22.748 4.583v-14.454l-22.902 4.004-0.138-0.43 15.601-17.603-12.738-7.44-8.161 22.185-0.281-0.144-8.299-22.041-12.309 7.44 15.309 17.889v0.286zM276.808 210.405l-22.471-4.152v14.454l22.19-4.439 0.138 0.286-15.171 18.032 12.738 7.301 8.007-21.893h0.292l8.161 21.893 12.59-7.153-15.462-18.181 0.149-0.425 22.748 4.583v-14.454l-22.902 4.004-0.138-0.43 15.601-17.603-12.738-7.44-8.161 22.185-0.266-0.149-8.3-22.041-12.308 7.44 15.309 17.889v0.292zM341.77 210.405l-22.471-4.152v14.454l22.19-4.439 0.138 0.286-15.171 18.032 12.738 7.301 8.007-21.893h0.292l8.161 21.893 12.59-7.153-15.462-18.181 0.149-0.425 22.748 4.583v-14.454l-22.902 4.004-0.138-0.43 15.601-17.603-12.738-7.44-8.161 22.185-0.281-0.144-8.3-22.041-12.308 7.44 15.309 17.889v0.286z" />
<glyph unicode="&#xe606;" d="M401.224 245.927l-19.497 19.497v27.566c0 12.309-4.803 23.88-13.497 32.594-8.704 8.694-20.265 13.486-32.584 13.486h-27.566l-19.466 19.466c-8.724 8.704-20.286 13.517-32.614 13.517s-23.89-4.803-32.583-13.497l-19.497-19.507h-27.556c-25.395 0-46.080-20.675-46.080-46.080v-27.556l-19.497-19.487c-8.704-8.704-13.486-20.275-13.486-32.584s4.813-23.89 13.486-32.584l19.497-19.476v-27.587c0-12.308 4.803-23.87 13.486-32.594 8.714-8.704 20.265-13.486 32.594-13.486h27.566l19.466-19.466c8.714-8.724 20.265-13.517 32.604-13.517s23.89 4.803 32.584 13.497l19.486 19.497h27.566c25.395 0 46.080 20.685 46.080 46.080v27.556l19.497 19.497c8.704 8.704 13.486 20.275 13.486 32.584 0.010 12.309-4.803 23.88-13.476 32.584zM209.756 171.912h-16.999l-15.298 27.627c-4.25 7.649-8.929 16.896-12.431 25.293l-0.317-0.113c0.42-9.452 0.645-19.548 0.645-31.232v-21.555h-14.879v71.619h18.923l14.869-26.245c4.25-7.547 8.499-16.466 11.694-24.546h0.317c-1.065 9.462-1.382 19.128-1.382 29.86v20.931h14.858v-71.639zM269.435 171.912h-45.68v71.629h44.185v-13.281h-27.945v-14.879h26.358v-13.189h-26.358v-16.998h29.44v-13.281zM348.702 171.912h-17.541l-6.062 30.822c-1.382 7.219-2.55 13.916-3.399 22.098h-0.215c-1.26-8.080-2.427-14.879-4.127-22.098l-6.8-30.822h-17.746l-16.998 71.629h17.316l5.417-29.542c1.577-8.499 3.082-17.736 4.24-24.965h0.215c1.168 7.762 2.867 16.363 4.68 25.17l6.062 29.328h17.224l5.745-30.178c1.587-8.387 2.765-16.036 3.82-24.002h0.215c1.065 7.957 2.663 16.363 4.137 24.853l5.837 29.328h16.455l-18.473-71.619z" />
<glyph unicode="&#xe607;" d="M417.945 303.303h-53.982c0 29.69-24.292 53.982-53.982 53.982h-215.927c-29.69 0-53.982-24.292-53.982-53.982v-125.958c0-29.69 24.292-53.982 53.982-53.982v-53.982l53.982 53.982c0-29.69 24.292-53.982 53.982-53.982h143.951l53.982-53.982v53.982h17.993c29.69 0 53.982 24.292 53.982 53.982v125.958c0 29.69-24.292 53.982-53.982 53.982zM94.055 159.351c-9.752 0-17.993 8.241-17.993 17.993v125.958c0 9.752 8.241 17.993 17.993 17.993h215.927c9.752 0 17.993-8.241 17.993-17.993v-17.994h-116.96c-24.814 0-44.985-20.171-44.985-44.985v-80.973h-71.975zM435.939 123.364c0-9.752-8.241-17.993-17.993-17.993h-215.927c-9.752 0-17.994 8.241-17.994 17.993v116.96c0 14.881 12.11 26.991 26.99 26.991h206.93c9.752 0 17.993-8.241 17.993-17.994v-125.958z" />
<glyph unicode="&#xe608;" d="M105.665 297.218h-26.325c-18.174 0-32.904-14.735-32.904-32.909v-180.993c0-18.175 14.73-32.909 32.904-32.909h26.325c18.174 0 32.909 14.735 32.909 32.909v180.997c0 18.174-14.735 32.904-32.909 32.904zM451.757 287.748l-7.169 3.582c-6.502 3.253-17.669 5.888-24.936 5.888h-122.137c-7.267 0-11.183 5.549-8.734 12.394l29.538 82.707c2.444 6.845-1.231 14.141-8.425 15.186-15.962 2.326-43.336 2.458-61.839-18.395-4.823-5.436-10.441-15.892-14.514-21.918-18.645-27.56-45.661-50.627-60.396-62.123-5.731-4.475-10.549-13.748-10.549-21.020v-220.481c0-7.272 5.888-13.164 13.165-13.164h215.378c7.267 0 17.022 4.455 21.781 9.945l11.281 13.012c4.76 5.495 9.519 15.77 10.632 22.954l26.687 172.524c1.109 7.203-3.258 15.662-9.764 18.91z" />
<glyph unicode="&#xe609;" d="M239.78 220.255c0-5.673-4.332-9.319-11.643-9.319h-5.755v17.879c1.065 0.195 3.082 0.482 6.625 0.482 6.727-0.102 10.773-3.082 10.773-9.042zM414.71 213.333c0-12.308-4.813-23.89-13.486-32.584l-19.497-19.497v-27.556c0-25.395-20.685-46.080-46.080-46.080h-27.566l-19.486-19.497c-8.704-8.704-20.275-13.507-32.594-13.507s-23.89 4.803-32.604 13.517l-19.466 19.466h-27.566c-12.319 0-23.88 4.793-32.594 13.486-8.714 8.724-13.486 20.275-13.486 32.594v27.587l-19.497 19.476c-8.704 8.704-13.486 20.275-13.486 32.584s4.813 23.89 13.486 32.584l19.497 19.487v27.556c0 25.405 20.685 46.080 46.080 46.080h27.556l19.497 19.507c8.694 8.704 20.265 13.517 32.584 13.517s23.89-4.803 32.604-13.517l19.466-19.466h27.566c12.298 0 23.88-4.793 32.584-13.486 8.724-8.725 13.497-20.286 13.497-32.594v-27.566l19.497-19.497c8.683-8.704 13.497-20.275 13.497-32.594zM196.844 239.671h-39.577v-64.758h14.704v26.041h23.255v11.919h-23.255v14.797h24.904v12.012h-0.030zM256.778 174.913c-1.25 2.498-3.256 10.947-5.284 18.248-1.638 5.959-4.126 10.291-8.663 12.114v0.276c5.571 2.017 11.438 7.68 11.438 15.954 0 5.96-2.119 10.476-5.959 13.548-4.608 3.645-11.335 5.1-20.951 5.1-7.792 0-14.797-0.583-19.507-1.351v-63.888h14.51v25.457h4.434c5.959-0.092 8.745-2.304 10.465-10.384 1.925-7.977 3.461-13.261 4.506-15.084h15.012zM306.135 186.914h-26.634v15.38h23.839v11.92h-23.839v13.456h25.293v12.012h-39.977v-64.758h41.318v11.991zM357.417 186.914h-26.624v15.38h23.839v11.92h-23.839v13.456h25.282v12.012h-39.966v-64.758h41.308v11.991z" />
<glyph unicode="&#xe60a;" d="M178.809 6.403c-27.582 57.394-12.893 90.281 8.305 121.264 23.215 33.933 29.198 67.522 29.198 67.522s18.25-23.724 10.95-60.829c32.24 35.889 38.325 93.070 33.457 114.969 72.875-50.928 104.021-161.201 62.048-242.926 223.247 126.313 55.531 315.313 26.332 336.605 9.733-21.29 11.578-57.331-8.084-74.821-33.284 126.21-115.579 152.076-115.579 152.076 9.733-65.087-35.281-136.26-78.689-189.442-1.525 25.953-3.145 43.862-16.793 68.698-3.064-47.147-39.095-85.58-48.852-132.818-13.217-63.973 9.9-110.813 97.705-160.299z" />
<glyph unicode="&#xe60b;" d="M435.588 33.746c-13.944-13.943-36.543-13.943-50.487 0l-63 63c-25.9-16.615-56.517-26.514-89.572-26.514-91.99 0-166.574 74.573-166.574 166.574s74.584 166.573 166.574 166.573c92.001 0 166.574-74.571 166.574-166.573 0-33.046-9.912-63.673-26.515-89.585l63-63c13.943-13.943 13.943-36.531 0-50.474zM232.53 355.786c-65.707 0-118.982-53.263-118.982-118.981s53.274-118.982 118.982-118.982c65.719 0 118.982 53.263 118.982 118.982s-53.263 118.981-118.982 118.981z" />
<glyph unicode="&#xe60c;" d="M483.016 304.245c-6.224 44.712-44.608 79.272-91.016 79.272h-264c-46.4 0-84.784-34.56-91.008-79.272-1-2.328-1.208-4.84-0.712-7.216-0.112-1.832-0.28-3.656-0.28-5.512v-126.184c0-29.512 14.024-55.752 35.688-72.6 0.104-0.096 0.176-0.2 0.28-0.296 0.16-0.136 0.352-0.176 0.512-0.304 15.464-11.736 34.664-18.8 55.52-18.8h264c50.728 0 92 41.272 92 92v126.184c0 1.864-0.168 3.68-0.28 5.512 0.504 2.376 0.296 4.888-0.704 7.216zM128 359.517h264c32.888 0 60.384-23.464 66.648-54.536l-119.424-80.616c-1.144-0.472-2.248-1.080-3.24-1.928-0.264-0.224-0.464-0.496-0.696-0.728l-15.68-10.584c-32.304-21.808-86.888-21.808-119.192 0l-139.064 93.856c6.272 31.064 33.768 54.536 66.648 54.536zM60 165.333v111.608l97.808-66.016-79.144-92.248c-11.528 12.184-18.664 28.592-18.664 46.656zM128 97.333c-10.768 0-20.912 2.584-29.976 7.056l79.808 93.016 9.144-6.168c20.472-13.824 46.744-20.728 73.016-20.728s52.544 6.912 73.024 20.728l8.808 5.944 79.768-92.976c-8.952-4.36-18.968-6.872-29.592-6.872h-264zM441.072 118.381l-79.208 92.32 98.144 66.24v-111.608c-0.008-18.208-7.24-34.736-18.936-46.952z" />
<glyph unicode="&#xe60d;" d="M399.745 391.352h26.325c18.175 0 32.909-14.735 32.909-32.909v-180.993c0-18.175-14.729-32.909-32.909-32.909h-26.325c-18.175 0-32.909 14.735-32.909 32.909v180.993c0 18.175 14.735 32.909 32.909 32.909zM70.582 345.436c1.114 7.183 5.873 17.462 10.632 22.954l11.276 13.012c4.764 5.495 14.514 9.945 21.786 9.945h215.378c7.267 0 13.164-5.893 13.164-13.165v-220.481c0-7.272-4.818-16.545-10.554-21.020-14.729-11.496-41.75-34.563-60.396-62.123-4.072-6.020-9.686-16.476-14.514-21.918-18.503-20.853-45.877-20.721-61.839-18.395-7.194 1.050-10.869 8.341-8.424 15.186l29.538 82.707c2.448 6.845-1.467 12.394-8.734 12.394h-122.141c-7.272 0-18.434 2.635-24.936 5.888l-7.169 3.582c-6.502 3.253-10.873 11.712-9.759 18.895l26.693 172.538z" />
<glyph unicode="&#xe60e;" d="M425.128 416.916h-269.524c-21.852 0-39.746-17.877-39.746-39.746v-134.752l-47.62-23.829v188.635h-21.096v-387.777h21.096v188.635l47.62-23.829v-134.752c0-21.871 17.896-39.747 39.746-39.747h269.524c21.853 0 39.729 17.877 39.729 39.746v327.671c-0.017 21.871-17.877 39.747-39.729 39.747zM406.67 76.894h-232.666v19.39h232.666v-19.39zM406.67 135.061h-232.666v19.39h232.666v-19.39zM406.67 193.227h-232.666v19.39h232.666v-19.39zM406.67 251.392h-232.666v19.39h232.666v-19.39z" />
<glyph unicode="&#xe60f;" d="M388.245 164.829v80.011c-0.258 61.716-42.588 120.689-105.906 135.693 0 0-2.080 31.109-33.177 31.109-31.573 0-33.153-30.228-33.153-30.228-63.294-14.93-105.099-74.859-105.465-136.575v-77.466c0-37.863-24.88-44.375-54.373-75.214h386.017c-29.493 30.839-53.944 34.793-53.944 72.668zM249.161 15.025c33.911 0 62.266 27.070 69.915 61.715h-139.805c7.649-34.645 36.016-61.715 69.891-61.715z" horiz-adv-x="499" />
<glyph unicode="&#xe610;" d="M380.842 74.228c0-40.081-25.223-52.662-56.318-28.065l-69.987 56.319h-70.017c-78.439 0-142.512 65.055-142.512 145.302 0 80.090 63.8 145.301 142.512 145.301h142.951c78.45 0 142.522-65.054 142.522-145.301 0-60.875-36.885-113.181-89.149-134.748v-38.807z" />
<glyph unicode="&#xe611;" d="M371.498 328.832c-16.64 16.661-43.69 16.661-60.33 0l-55.168-55.168-55.168 55.168c-16.64 16.661-43.69 16.661-60.331 0-16.662-16.661-16.662-43.67 0-60.33l55.147-55.168-55.147-55.168c-16.662-16.661-16.662-43.669 0-60.331 8.32-8.341 19.243-12.502 30.166-12.502s21.845 4.16 30.166 12.502l55.168 55.168 55.168-55.168c8.32-8.341 19.243-12.502 30.166-12.502s21.846 4.16 30.166 12.502c16.661 16.661 16.661 43.669 0 60.331l-55.147 55.168 55.147 55.168c16.661 16.661 16.661 43.669 0 60.33z" />
<glyph unicode="&#xe612;" d="M362.070 335.979c-20.63 11.477-46.613 4.010-58.026-16.576l-79.21-142.55-45.333 45.334c-16.661 16.662-43.669 16.662-60.331 0s-16.662-43.67 0-60.33l85.333-85.334c8.064-8.086 18.944-12.522 30.166-12.522 1.963 0 3.946 0.128 5.91 0.426 13.248 1.856 24.874 9.813 31.381 21.526l106.666 192c11.456 20.608 4.032 46.57-16.555 58.026z" />
<glyph unicode="&#xe613;" d="M384 256h-85.334v85.334c0 23.552-19.115 42.666-42.666 42.666s-42.666-19.114-42.666-42.666l1.514-85.334h-86.848c-23.552 0-42.666-19.114-42.666-42.667s19.115-42.666 42.666-42.666l86.848 1.514-1.514-86.848c0-23.552 19.114-42.666 42.666-42.666s42.666 19.115 42.666 42.666v86.848l85.334-1.514c23.552 0 42.666 19.115 42.666 42.666s-19.115 42.667-42.666 42.667z" />
<glyph unicode="&#xe614;" d="M384 234.667h-256c-23.552 0-42.666-19.115-42.666-42.667s19.115-42.666 42.666-42.666h256c23.552 0 42.666 19.115 42.666 42.666s-19.115 42.667-42.666 42.667z" />
<glyph unicode="&#xe615;" d="M183.168 350.165c-16.661-16.662-16.661-43.67 0-60.331l76.48-76.502-76.48-76.501c-16.661-16.661-16.661-43.669 0-60.331 8.32-8.341 19.243-12.502 30.166-12.502s21.846 4.16 30.166 12.502l136.853 136.832-136.853 136.832c-16.64 16.661-43.69 16.661-60.331 0z" />
<glyph unicode="&#xe616;" d="M307.498 350.165c-16.64 16.661-43.69 16.661-60.331 0l-136.853-136.832 136.853-136.832c8.32-8.341 19.242-12.502 30.165-12.502s21.846 4.16 30.166 12.502c16.661 16.661 16.661 43.669 0 60.331l-76.48 76.502 76.48 76.501c16.661 16.662 16.661 43.67 0 60.331z" />
<glyph unicode="&#xe617;" d="M225.834 328.832c-16.661-16.618-16.661-43.67 0-60.33l33.834-33.835h-154.538c-23.552 0-42.666-19.094-42.666-42.667 0-23.552 19.115-42.666 42.666-42.666h154.538l-33.834-33.834c-16.661-16.618-16.661-43.669 0-60.331 8.341-8.341 19.243-12.502 30.166-12.502s21.824 4.16 30.166 12.502l136.832 136.832-136.832 136.832c-16.661 16.661-43.669 16.661-60.331 0z" />
<glyph unicode="&#xe618;" d="M384 234.667h-154.538l33.834 33.834c16.661 16.661 16.661 43.712 0 60.33-16.661 16.662-43.669 16.662-60.331 0l-136.832-136.832 136.832-136.832c8.32-8.341 19.243-12.502 30.166-12.502s21.824 4.16 30.165 12.502c16.661 16.661 16.661 43.712 0 60.33l-33.834 33.834h154.538c23.552 0 42.666 19.115 42.666 42.666 0 23.574-19.115 42.667-42.666 42.667z" />
<glyph unicode="&#xe619;" d="M160 64c0-29.455-23.878-53.334-53.334-53.334s-53.334 23.878-53.334 53.334c0 29.455 23.878 53.334 53.334 53.334 29.455 0 53.334-23.878 53.334-53.334zM160 213.333c0-29.455-23.878-53.334-53.334-53.334s-53.334 23.878-53.334 53.334c0 29.455 23.878 53.334 53.334 53.334 29.455 0 53.334-23.878 53.334-53.334zM160 362.667c0-29.455-23.878-53.333-53.334-53.333s-53.334 23.878-53.334 53.333c0 29.455 23.878 53.334 53.334 53.334 29.455 0 53.334-23.878 53.334-53.334zM309.334 64c0-29.455-23.878-53.334-53.334-53.334s-53.334 23.878-53.334 53.334c0 29.455 23.878 53.334 53.334 53.334 29.455 0 53.334-23.878 53.334-53.334zM309.334 213.333c0-29.455-23.878-53.334-53.334-53.334s-53.334 23.878-53.334 53.334c0 29.455 23.878 53.334 53.334 53.334 29.455 0 53.334-23.878 53.334-53.334zM309.334 362.667c0-29.455-23.878-53.333-53.334-53.333s-53.334 23.878-53.334 53.333c0 29.455 23.878 53.334 53.334 53.334 29.455 0 53.334-23.878 53.334-53.334zM458.666 64c0-29.455-23.878-53.334-53.334-53.334s-53.334 23.878-53.334 53.334c0 29.455 23.878 53.334 53.334 53.334 29.455 0 53.334-23.878 53.334-53.334zM458.666 213.333c0-29.455-23.878-53.334-53.334-53.334s-53.334 23.878-53.334 53.334c0 29.455 23.878 53.334 53.334 53.334 29.455 0 53.334-23.878 53.334-53.334zM458.666 362.667c0-29.455-23.878-53.333-53.334-53.333s-53.334 23.878-53.334 53.333c0 29.455 23.878 53.334 53.334 53.334 29.455 0 53.334-23.878 53.334-53.334z" />
<glyph unicode="&#xe61a;" d="M405.334 106.667h-298.666c-23.531 0-42.666-19.136-42.666-42.666s19.136-42.666 42.666-42.666h298.666c23.531 0 42.666 19.136 42.666 42.666s-19.136 42.666-42.666 42.666zM405.334 256h-298.666c-23.531 0-42.666-19.136-42.666-42.667s19.136-42.666 42.666-42.666h298.666c23.531 0 42.666 19.136 42.666 42.666s-19.136 42.667-42.666 42.667zM405.334 405.333h-298.666c-23.531 0-42.666-19.136-42.666-42.667s19.136-42.666 42.666-42.666h298.666c23.531 0 42.666 19.136 42.666 42.666s-19.136 42.667-42.666 42.667z" />
<glyph unicode="&#xe61b;" d="M405.334 106.667h-149.334c-23.53 0-42.666-19.136-42.666-42.666s19.136-42.666 42.666-42.666h149.333c23.531 0 42.666 19.136 42.666 42.666s-19.136 42.666-42.666 42.666zM405.334 256h-149.334c-23.53 0-42.666-19.136-42.666-42.667s19.136-42.666 42.666-42.666h149.333c23.531 0 42.666 19.136 42.666 42.666s-19.136 42.667-42.666 42.667zM405.334 405.333h-149.334c-23.53 0-42.666-19.136-42.666-42.667s19.136-42.666 42.666-42.666h149.333c23.531 0 42.666 19.136 42.666 42.666s-19.136 42.667-42.666 42.667zM160 64c0-29.455-23.878-53.334-53.334-53.334s-53.334 23.878-53.334 53.334c0 29.455 23.878 53.334 53.334 53.334 29.455 0 53.334-23.878 53.334-53.334zM160 213.333c0-29.455-23.878-53.334-53.334-53.334s-53.334 23.878-53.334 53.334c0 29.455 23.878 53.334 53.334 53.334 29.455 0 53.334-23.878 53.334-53.334zM160 362.667c0-29.455-23.878-53.333-53.334-53.333s-53.334 23.878-53.334 53.333c0 29.455 23.878 53.334 53.334 53.334 29.455 0 53.334-23.878 53.334-53.334z" />
<glyph unicode="&#xe61c;" d="M256 405.333c0 0-131.968-113.92-205.718-175.616-4.331-3.925-7.616-9.643-7.616-16.384 0-11.798 9.536-21.334 21.334-21.334h42.666v-149.334c0-11.798 9.536-21.334 21.334-21.334h64c11.798 0 21.334 9.558 21.334 21.334v85.334h85.334v-85.334c0-11.776 9.536-21.334 21.334-21.334h64c11.798 0 21.334 9.536 21.334 21.334v149.333h42.666c11.798 0 21.334 9.536 21.334 21.334 0 6.742-3.286 12.459-8.171 16.384-73.238 61.696-205.162 175.616-205.162 175.616z" />
<glyph unicode="&#xe61d;" d="M277.334 352.021c-5.462 0-10.923-2.070-15.082-6.23-4.16-4.182-6.25-9.642-6.25-15.104v-54.592c-96-10.624-170.667-91.925-170.667-190.742v-21.334c47.893 73.024 112 83.627 170.667 85.099v-53.099c0-5.44 2.091-10.923 6.25-15.082s9.622-6.25 15.082-6.25 10.923 2.091 15.082 6.25l134.25 132.416-134.25 132.438c-4.16 4.16-9.622 6.229-15.082 6.229z" />
<glyph unicode="&#xe61e;" d="M256 276.075v54.592c0 5.462-2.090 10.923-6.25 15.104-4.16 4.16-9.621 6.229-15.083 6.229s-10.922-2.070-15.083-6.229l-134.25-132.438 134.25-132.416c4.16-4.16 9.621-6.25 15.083-6.25s10.922 2.091 15.083 6.25 6.25 9.642 6.25 15.082v53.099c58.666-1.45 122.774-12.075 170.667-85.099v21.334c0 98.837-74.666 180.118-170.667 190.742z" />
<glyph unicode="&#xe61f;" d="M128.042 128.021c-23.616 0-42.752-19.136-42.709-42.688 0-23.552 19.114-42.688 42.709-42.645 23.53-0.043 42.667 19.072 42.624 42.645 0.042 23.616-19.094 42.731-42.624 42.688zM128 384c-23.552 0-42.666-19.114-42.666-42.666s19.115-42.667 42.666-42.667c117.632 0 213.333-95.702 213.333-213.334 0-23.552 19.115-42.666 42.666-42.666s42.666 19.115 42.666 42.666c0 164.694-133.974 298.666-298.666 298.666zM128 256c-23.552 0-42.666-19.114-42.666-42.667s19.115-42.666 42.666-42.666c47.040 0 85.334-38.272 85.334-85.334 0-23.552 19.114-42.666 42.666-42.666s42.666 19.115 42.666 42.666c0 94.101-76.565 170.667-170.667 170.667z" />
<glyph unicode="&#xe620;" d="M376.683 356.181c-66.645 65.558-174.698 65.558-241.344 0-66.645-65.578-66.645-171.882 0-237.44l120.661-118.72 120.683 118.72c66.645 65.558 66.645 171.862 0 237.44zM256 181.355c-14.25 0-27.626 5.546-37.718 15.616-20.8 20.8-20.8 54.635 0 75.435 10.070 10.069 23.466 15.616 37.718 15.616s27.648-5.547 37.717-15.616c20.8-20.8 20.8-54.656 0-75.435-10.070-10.070-23.466-15.616-37.718-15.616z" />
<glyph unicode="&#xe621;" d="M389.909 334.485c-9.173 9.173-24.022 9.173-33.195 0l-36.714-36.736-6.57 6.571c-24.918 24.918-68.608 24.918-93.525 0l-89.002-89.002c-12.459-12.459-19.328-29.078-19.328-46.763s6.87-34.304 19.328-46.762l6.571-6.57-36.736-36.736c-9.174-9.173-9.174-24.022 0-33.195 4.587-4.587 10.582-6.87 16.597-6.87s12.011 2.283 16.597 6.87l36.736 36.736 6.571-6.57c12.458-12.459 29.056-19.328 46.763-19.328s34.304 6.87 46.762 19.328l89.002 89.002c12.459 12.459 19.328 29.056 19.328 46.762s-6.87 34.304-19.328 46.762l-6.57 6.571 36.736 36.736c9.152 9.173 9.152 24.022-0.022 33.195zM326.57 197.653l-89.002-89.002c-3.584-3.584-8.576-5.397-13.568-5.397s-9.984 1.792-13.568 5.397l-6.571 6.57 15.403 15.402c9.173 9.173 9.173 24.022 0 33.195-4.587 4.587-10.582 6.87-16.597 6.87s-12.011-2.283-16.597-6.87l-15.403-15.402-6.571 6.57c-3.584 3.584-5.568 8.426-5.568 13.568s1.984 9.984 5.568 13.568l89.002 89.003c3.584 3.584 8.406 5.568 13.568 5.568s9.984-1.984 13.568-5.568l6.57-6.571-15.402-15.403c-9.173-9.173-9.173-24.022 0-33.195 4.587-4.587 10.582-6.87 16.598-6.87s12.010 2.283 16.598 6.87l15.402 15.403 6.57-6.571c3.584-3.584 5.568-8.427 5.568-13.568s-1.984-9.984-5.568-13.568z" />
<glyph unicode="&#xe622;" d="M234.667 287.979c0-29.455-23.878-53.333-53.333-53.333-29.455 0-53.334 23.878-53.334 53.333 0 29.455 23.878 53.334 53.334 53.334 29.455 0 53.334-23.878 53.334-53.334zM341.334 256c-42.666 0-64-64-96-64s-31.978 21.334-74.666 21.334c-42.666 0-64.022-85.334-64.022-85.334h298.688c0 0-21.334 128-64 128zM426.666 405.333h-341.334c-23.531 0-42.666-19.136-42.666-42.667v-256c0-23.531 19.136-42.666 42.666-42.666h341.334c23.531 0 42.666 19.136 42.666 42.666v256c0 23.531-19.136 42.667-42.666 42.667zM426.666 106.667h-341.334v256h341.334v-256z" />
<glyph unicode="&#xe623;" d="M256 401.664l-136.832-136.832c-16.662-16.661-16.662-43.67 0-60.331s43.669-16.661 60.331 0l33.834 33.835v-154.496c0-23.552 19.094-42.666 42.667-42.666 23.552 0 42.666 19.115 42.666 42.666v154.496l33.834-33.835c8.341-8.341 19.243-12.502 30.166-12.502s21.824 4.16 30.166 12.502c16.661 16.661 16.661 43.67 0 60.331l-136.832 136.832z" />
<glyph unicode="&#xe624;" d="M392.832 242.005c-16.661 16.661-43.669 16.661-60.331 0l-33.834-33.835v154.496c0 23.573-19.115 42.666-42.666 42.666-23.573 0-42.666-19.094-42.666-42.666v-154.496l-33.834 33.835c-16.661 16.662-43.669 16.662-60.331 0s-16.662-43.67 0-60.331l136.832-136.832 136.832 136.832c16.661 16.661 16.661 43.648 0 60.331z" />
<glyph unicode="&#xe625;" d="M199.722 273.963c0 0-67.413-7.466-112.384-12.459-4.053-0.49-7.638-3.2-8.981-7.317s0-8.405 2.987-11.114c33.408-30.486 83.606-76.139 83.606-76.139-0.042 0-13.781-66.411-22.912-110.72-0.768-4.010 0.683-8.256 4.181-10.794 3.477-2.538 7.958-2.582 11.477-0.598 39.339 22.358 98.261 55.978 98.261 55.978s58.944-33.621 98.219-56c3.584-1.962 8.064-1.92 11.541 0.618 3.498 2.538 4.95 6.784 4.16 10.774-9.13 44.33-22.848 110.742-22.848 110.742s50.197 45.654 83.606 76.075c2.986 2.794 4.31 7.083 2.986 11.178s-4.906 6.806-8.96 7.274c-44.971 5.035-112.406 12.502-112.406 12.502s-27.947 61.824-46.57 103.040c-1.75 3.69-5.418 6.272-9.728 6.272s-8-2.603-9.664-6.272c-18.645-41.216-46.571-103.040-46.571-103.040z" />
<glyph unicode="&#xe626;" d="M362.666 128c-27.84 0-51.264-17.856-60.075-42.666h-67.925c-35.286 0-64 28.714-64 64v64.534c17.877-13.526 39.894-21.866 64-21.866h67.925c8.81-24.81 32.256-42.666 60.075-42.666 35.349 0 64 28.651 64 64s-28.651 64-64 64c-27.84 0-51.264-17.856-60.075-42.666h-67.925c-35.286 0-64 28.714-64 64v3.925c24.81 8.811 42.666 32.256 42.666 60.075 0 35.349-28.65 64-64 64s-64-28.65-64-64c0-27.819 17.856-51.264 42.666-60.075v-153.258c0-58.816 47.85-106.666 106.666-106.666h67.926c8.81-24.81 32.256-42.666 60.075-42.666 35.349 0 64 28.651 64 64s-28.651 64-64 64zM362.666 234.667c11.776 0 21.334-9.578 21.334-21.334s-9.558-21.334-21.334-21.334-21.334 9.579-21.334 21.334 9.558 21.334 21.334 21.334zM149.333 384c11.776 0 21.333-9.578 21.333-21.333s-9.558-21.333-21.334-21.333-21.334 9.578-21.334 21.333 9.557 21.334 21.334 21.334zM362.666 42.667c-11.776 0-21.334 9.579-21.334 21.334s9.558 21.334 21.334 21.334 21.334-9.579 21.334-21.334-9.558-21.334-21.334-21.334z" />
<glyph unicode="&#xe627;" d="M170.667 117.333v-10.666c36.075 54.998 76.8 84.33 128 85.334 0-22.293 0-60.544 0-64 0-11.755 10.901-21.334 24.384-21.334 7.765 0 14.4 3.37 18.837 8.341 41.238 43.286 127.445 130.326 127.445 130.326s-86.208 87.082-127.466 130.923c-4.438 4.374-11.050 7.744-18.816 7.744-13.483 0-24.384-9.536-24.384-21.334 0-3.584 0-40.042 0-64-99.413 0-128-103.915-128-181.334zM106.666 21.333h298.666c11.798 0 21.334 9.558 21.334 21.334v128.982c-14.166-14.421-29.099-29.717-42.666-43.669v-63.978h-256v256h149.333v42.667h-170.667c-11.797 0-21.334-9.558-21.334-21.334v-298.667c0-11.776 9.536-21.334 21.334-21.334z" />
<glyph unicode="&#xe628;" d="M256 384c-94.272 0-170.667-76.416-170.667-170.666s76.394-170.667 170.667-170.667 170.667 76.416 170.667 170.667-76.394 170.667-170.667 170.667zM335.082 164.416c8.341-8.341 8.341-21.824 0-30.166-4.16-4.16-9.622-6.25-15.082-6.25s-10.923 2.091-15.082 6.25l-48.918 48.918-48.917-48.918c-4.16-4.16-9.621-6.25-15.083-6.25s-10.923 2.091-15.083 6.25c-8.341 8.341-8.341 21.824 0 30.166l48.917 48.918-48.917 48.918c-8.341 8.341-8.341 21.824 0 30.166s21.824 8.341 30.166 0l48.917-48.917 48.918 48.917c8.341 8.341 21.824 8.341 30.166 0s8.341-21.824 0-30.166l-48.918-48.918 48.918-48.918z" />
<glyph unicode="&#xe629;" d="M256 405.333c-105.877 0-192-86.144-192-192s86.123-192 192-192 192 86.144 192 192-86.123 192-192 192zM256 64c-82.326 0-149.333 66.987-149.333 149.334s67.008 149.334 149.333 149.334 149.333-66.986 149.333-149.334-67.008-149.333-149.333-149.333zM271.082 213.333l56.448 56.448c4.139 4.139 4.139 10.923 0 15.082-4.16 4.139-10.944 4.139-15.082 0l-56.448-56.448-56.448 56.47c-4.16 4.138-10.944 4.138-15.083 0-4.16-4.16-4.16-10.944 0-15.083l56.448-56.47-56.448-56.448c-4.16-4.16-4.16-10.944 0-15.082 2.070-2.091 4.8-3.136 7.53-3.136s5.462 1.046 7.552 3.115l56.448 56.469 56.448-56.448c2.091-2.091 4.822-3.136 7.552-3.136s5.462 1.046 7.552 3.115c4.139 4.139 4.139 10.923 0 15.082l-56.469 56.469z" />
<glyph unicode="&#xe62a;" d="M362.666 277.333c-2.454 0-4.928-0.107-7.488-0.32-17.6 50.71-65.322 85.654-120.512 85.654-70.592 0-128-57.408-128-128 0-0.896 0-1.792 0.022-2.688-36.779-9.494-64.022-42.944-64.022-82.646 0-47.062 38.272-85.334 85.334-85.334h106.666v97.834l-27.584-27.584c-4.16-4.16-9.621-6.25-15.083-6.25s-10.922 2.091-15.083 6.25c-8.341 8.341-8.341 21.824 0 30.166l63.978 63.979c1.984 1.984 4.331 3.542 6.954 4.63 5.206 2.155 11.094 2.155 16.298 0 2.624-1.088 4.971-2.645 6.954-4.63l63.978-63.979c8.341-8.341 8.341-21.824 0-30.166-4.16-4.16-9.622-6.25-15.082-6.25s-10.923 2.091-15.082 6.25l-27.584 27.584v-97.834h85.334c58.816 0 106.666 47.851 106.666 106.666s-47.851 106.666-106.666 106.666z" />
<glyph unicode="&#xe62b;" d="M256 248c0 51.541-41.792 93.334-93.334 93.334s-93.334-41.792-93.334-93.334c0-24.043 3.392-59.392 37.334-93.334s149.333-112 149.333-112 115.392 78.058 149.333 112 37.334 69.291 37.334 93.334c0 51.541-41.792 93.333-93.334 93.333s-93.334-41.792-93.334-93.333z" />
<glyph unicode="&#xe62c;" d="M256 384c-94.101 0-170.667-76.565-170.667-170.666s76.566-170.667 170.667-170.667 170.667 76.565 170.667 170.667-76.565 170.667-170.667 170.667zM149.333 213.333c0 17.75 4.779 34.219 12.458 48.96l143.168-143.168c-14.741-7.68-31.211-12.459-48.96-12.459-58.816 0-106.667 47.851-106.667 106.666zM350.208 164.373l-143.168 143.168c14.742 7.68 31.21 12.459 48.96 12.459 58.816 0 106.666-47.851 106.666-106.667 0-17.75-4.779-34.219-12.459-48.96z" />
<glyph unicode="&#xe62d;" d="M416 362.667h-213.333c-27.008 0-60.458-17.216-76.16-39.189l-55.68-77.931c-13.696-19.157-25.216-35.286-25.578-35.819-2.581-3.733-2.602-10.496 0.064-14.166 0.49-0.704 11.84-16.576 25.344-35.498l55.872-78.23c15.68-21.952 49.109-39.168 76.138-39.168h213.334c29.418 0 53.334 23.936 53.334 53.334v213.334c0 29.397-23.914 53.334-53.334 53.334zM367.082 153.749c8.341-8.341 8.341-21.824 0-30.166-4.16-4.16-9.622-6.25-15.082-6.25s-10.923 2.091-15.082 6.25l-48.918 48.918-48.917-48.918c-4.16-4.16-9.621-6.25-15.083-6.25s-10.923 2.091-15.083 6.25c-8.341 8.341-8.341 21.824 0 30.166l48.917 48.918-48.917 48.918c-8.341 8.341-8.341 21.824 0 30.166s21.824 8.341 30.166 0l48.917-48.917 48.918 48.917c8.341 8.341 21.824 8.341 30.166 0s8.341-21.824 0-30.166l-48.918-48.918 48.918-48.918z" />
<glyph unicode="&#xe62e;" d="M391.765 327.787c-33.301 33.259-87.466 33.259-120.704 0l-96.726-96.746c-10.090-10.090-15.637-23.467-15.637-37.76 0-14.25 5.568-27.627 15.616-37.717 10.389-10.368 24.064-15.574 37.738-15.574 13.654 0 27.286 5.163 37.696 15.574l45.27 45.248c8.341 8.426 12.502 19.286 12.502 30.166 0 10.923-4.16 21.824-12.502 30.165l-75.435-75.413c-4.118-4.16-10.901-4.16-15.104 0.043-2.709 2.709-3.114 5.866-3.114 7.51 0 1.664 0.405 4.842 3.114 7.552l96.747 96.79c16.598 16.618 43.69 16.618 60.373 0 16.618-16.618 16.618-43.712 0-60.331l-150.869-150.87c-16.619-16.618-43.712-16.618-60.331 0-16.64 16.618-16.64 43.712 0 60.331l2.026 2.048c-9.621 12.8-14.976 28.992-14.976 45.334l-17.216-17.216c-33.28-33.258-33.28-87.424 0-120.661 16.619-16.618 38.486-24.96 60.331-24.96s43.712 8.341 60.331 24.96l150.87 150.87c33.28 33.259 33.28 87.382 0 120.661z" />
<glyph unicode="&#xe62f;" d="M377.75 292.416c-8.341 8.341-21.824 8.341-30.166 0s-8.341-21.824 0-30.166l27.584-27.584h-97.834v97.835l27.584-27.584c4.16-4.16 9.622-6.25 15.082-6.25s10.923 2.091 15.082 6.25c8.341 8.341 8.341 21.824 0 30.166l-79.082 79.082-79.082-79.082c-8.341-8.341-8.341-21.824 0-30.166s21.824-8.341 30.166 0l27.584 27.584v-97.835h-97.834l27.584 27.584c8.341 8.341 8.341 21.824 0 30.165s-21.824 8.341-30.166 0l-79.082-79.082 79.082-79.082c4.16-4.16 9.621-6.25 15.083-6.25s10.922 2.091 15.083 6.25c8.341 8.341 8.341 21.824 0 30.166l-27.584 27.584h97.834v-97.834l-27.584 27.584c-8.341 8.341-21.824 8.341-30.166 0s-8.341-21.824 0-30.166l79.082-79.082 79.082 79.082c8.341 8.341 8.341 21.824 0 30.166s-21.824 8.341-30.166 0l-27.584-27.584v97.834h97.834l-27.584-27.584c-8.341-8.341-8.341-21.824 0-30.166 4.16-4.16 9.622-6.25 15.082-6.25s10.923 2.091 15.082 6.25l79.082 79.082-79.082 79.082z" />
<glyph unicode="&#xe630;" d="M451.648 140.843l-126.123 210.219c-16.555 27.584-41.877 43.37-69.526 43.37s-52.971-15.786-69.525-43.328l-126.123-210.262c-16.768-27.925-18.602-57.707-5.014-81.707 13.568-24.022 40.064-37.803 72.661-37.803h256c32.597 0 59.094 13.781 72.661 37.781 13.589 24 11.755 53.781-5.014 81.728zM256 94.955c-18.219 0-33.066 14.827-33.066 33.046 0 18.24 14.827 33.088 33.066 33.088s33.067-14.848 33.067-33.088c0-18.219-14.848-33.046-33.067-33.046zM290.837 253.333c-0.235-0.661-29.888-73.984-29.888-73.984-0.81-2.005-2.774-3.328-4.928-3.328s-4.118 1.322-4.928 3.328l-29.674 73.344c-1.92 4.97-2.752 9.451-2.752 13.973 0 20.587 16.746 37.334 37.333 37.334s37.334-16.747 37.334-37.334c0-4.522-0.832-9.002-2.496-13.333z" />
<glyph unicode="&#xe631;" d="M362.666 277.333c0 29.462-11.947 56.128-31.232 75.413-19.307 19.306-45.974 31.253-75.435 31.253s-56.128-11.947-75.435-31.253c-19.286-19.286-31.232-45.952-31.232-75.413s11.946-56.128 31.232-75.414c19.306-19.307 45.974-31.253 75.435-31.253s56.128 11.947 75.435 31.253c19.286 19.286 31.232 45.952 31.232 75.414zM128 64c0-21.334 48-42.666 128-42.666 75.050 0 128 21.334 128 42.666 0 42.666-50.219 85.334-128 85.334-80 0-128-42.666-128-85.334z" />
<glyph unicode="&#xe632;" d="M384 384c-47.062 0-85.334-38.293-85.334-85.333v-64h-85.334v21.333h-64c-23.531 0-42.666-19.114-42.666-42.667v-149.333c0-23.552 19.136-42.666 42.666-42.666h213.333c23.531 0 42.666 19.115 42.666 42.666v149.334c0 23.552-19.136 42.667-42.666 42.667h-21.334v42.666c0 23.552 19.136 42.667 42.666 42.667s42.666-19.115 42.666-42.667v-64c0-11.798 9.558-21.334 21.334-21.334s21.334 9.536 21.334 21.334v64c0 47.040-38.272 85.334-85.334 85.334zM256 78.955c-15.339 0-27.733 12.373-27.733 27.712s12.394 27.755 27.733 27.755 27.733-12.416 27.733-27.755-12.394-27.712-27.733-27.712z" />
<glyph unicode="&#xe633;" d="M362.666 256h-21.334v42.666c0 47.040-38.272 85.334-85.334 85.334s-85.334-38.293-85.334-85.334v-42.666h-21.334c-23.531 0-42.666-19.114-42.666-42.667v-149.334c0-23.552 19.136-42.666 42.666-42.666h213.334c23.531 0 42.666 19.115 42.666 42.666v149.334c0 23.552-19.136 42.667-42.666 42.667zM256 78.955c-15.339 0-27.733 12.373-27.733 27.712s12.394 27.755 27.733 27.755 27.733-12.416 27.733-27.755-12.394-27.712-27.733-27.712zM298.666 234.667h-85.334v64c0 23.552 19.136 42.667 42.666 42.667s42.666-19.115 42.666-42.667v-64z" />
<glyph unicode="&#xe634;" d="M451.648 140.843l-126.123 210.219c-16.555 27.584-41.877 43.37-69.526 43.37s-52.971-15.786-69.525-43.328l-126.123-210.262c-16.768-27.925-18.602-57.707-5.014-81.707 13.568-24.022 40.064-37.803 72.661-37.803h256c32.597 0 59.094 13.781 72.661 37.781 13.589 24 11.755 53.781-5.014 81.728zM256 289.088c18.219-0.043 33.046-14.891 33.088-33.067 0-18.197-14.827-33.046-33.067-33.088-18.219 0.043-33.066 14.891-33.109 33.067 0 18.24 14.848 33.088 33.088 33.088zM292.053 108.587c-0.683-0.789-16.96-19.584-44.118-19.584-1.088 0-2.197 0.022-3.286 0.086-10.838 0.64-19.798 5.44-25.28 13.526-6.72 9.92-7.637 23.744-2.582 38.933l8.661 26.048c4.8 14.57 0.214 16.896-2.262 18.134-0.661 0.341-1.707 0.534-2.987 0.534-5.355 0-12.736-3.158-15.104-4.394-2.219-1.152-5.013-0.555-6.635 1.43-1.558 2.026-1.514 4.842 0.149 6.784 0.704 0.832 18.496 21.226 47.424 19.498 10.773-0.618 19.734-5.397 25.216-13.462 6.741-9.92 7.68-23.765 2.646-38.998l-8.661-26.048c-4.842-14.55-0.214-16.896 2.262-18.134 0.426-0.214 1.322-0.49 2.923-0.49 5.418 0 12.8 3.158 15.19 4.373 2.262 1.195 5.014 0.555 6.613-1.45 1.536-2.026 1.493-4.842-0.171-6.784z" />
<glyph unicode="&#xe635;" d="M448 170.667h-128c-11.798 0-21.334 9.536-21.334 21.334s9.536 21.334 21.334 21.334h128c11.798 0 21.334-9.536 21.334-21.334s-9.536-21.334-21.334-21.334zM298.666 277.333c0-29.462-11.947-56.128-31.232-75.414-19.306-19.307-45.974-31.253-75.435-31.253s-56.128 11.947-75.434 31.253c-19.285 19.286-31.232 45.952-31.232 75.414s11.947 56.128 31.232 75.413c19.307 19.306 45.973 31.253 75.434 31.253s56.128-11.947 75.435-31.253c19.286-19.286 31.232-45.952 31.232-75.413zM192 149.333c-80 0-128-42.666-128-85.334 0-21.334 48-42.666 128-42.666 75.050 0 128 21.334 128 42.666s-50.219 85.334-128 85.334z" />
<glyph unicode="&#xe636;" d="M192 170.667c29.462 0 56.128 11.947 75.435 31.253 19.286 19.286 31.232 45.952 31.232 75.414s-11.947 56.128-31.232 75.413c-19.306 19.306-45.974 31.253-75.435 31.253s-56.128-11.947-75.434-31.253c-19.285-19.286-31.232-45.952-31.232-75.413s11.947-56.128 31.232-75.414c19.307-19.307 45.973-31.253 75.434-31.253zM192 21.333c75.050 0 128 21.334 128 42.666 0 42.666-50.219 85.334-128 85.334-80 0-128-42.666-128-85.334 0-21.334 48-42.666 128-42.666zM448 213.333h-42.666v42.667c0 11.797-9.536 21.334-21.334 21.334s-21.334-9.536-21.334-21.334v-42.667h-42.666c-11.798 0-21.334-9.536-21.334-21.334s9.536-21.334 21.334-21.334h42.666v-42.666c0-11.798 9.536-21.334 21.334-21.334s21.334 9.536 21.334 21.334v42.666h42.666c11.798 0 21.334 9.536 21.334 21.334s-9.536 21.334-21.334 21.334z" />
<glyph unicode="&#xe637;" d="M256 170.667c29.462 0 56.128 11.947 75.435 31.253 19.286 19.286 31.232 45.952 31.232 75.414s-11.947 56.128-31.232 75.413c-19.307 19.306-45.974 31.253-75.435 31.253s-56.128-11.947-75.435-31.253c-19.286-19.286-31.232-45.952-31.232-75.413s11.946-56.128 31.232-75.414c19.306-19.307 45.974-31.253 75.435-31.253zM426.666 149.333c14.72 0 28.053 5.952 37.718 15.594s15.616 22.976 15.616 37.738c0 14.72-5.952 28.054-15.616 37.718-9.664 9.664-22.998 15.616-37.717 15.616-14.741 0-28.075-5.952-37.738-15.616-9.642-9.664-15.594-22.998-15.594-37.718 0-14.741 5.952-28.075 15.594-37.738s22.998-15.594 37.738-15.594zM426.666 136.747c-28.394 0-49.75-8.661-62.229-20.651-23.786 19.563-61.397 33.238-108.438 33.238-48.341 0-85.226-13.824-108.63-33.365-12.714 12.053-34.304 20.779-62.037 20.779-46.678 0-74.666-23.253-74.666-46.55 0-11.627 27.989-23.296 74.666-23.296 12.886 0 24.448 1.088 34.624 2.837-0.213-1.942-0.853-3.84-0.853-5.76 0-21.334 51.328-42.666 136.896-42.666 80.256 0 136.896 21.334 136.896 42.666 0 1.813-0.235 3.627-0.426 5.44 9.877-1.558 21.226-2.517 34.197-2.517 43.755 0 74.666 11.669 74.666 23.296 0 23.296-29.291 46.55-74.666 46.55zM85.334 149.333c14.72 0 28.053 5.952 37.718 15.616s15.616 22.998 15.616 37.717c0 14.699-5.952 28.032-15.616 37.718-9.664 9.643-22.998 15.616-37.718 15.616-14.742 0-28.075-5.973-37.739-15.616-9.642-9.685-15.594-23.018-15.594-37.718 0-14.72 5.952-28.053 15.594-37.717 9.664-9.664 22.998-15.616 37.739-15.616z" />
<glyph unicode="&#xe638;" d="M298.666 384c0 23.574-19.115 42.667-42.666 42.667s-42.666-19.094-42.666-42.667v-256h85.334v256zM405.334 298.667c0 23.573-19.115 42.667-42.666 42.667s-42.666-19.094-42.666-42.667v-170.666h85.334v170.667zM192 234.667c0 23.573-19.114 42.667-42.666 42.667s-42.666-19.094-42.666-42.667v-106.667h85.334v106.667zM405.334 64h-298.666c-11.797 0-21.334-9.536-21.334-21.334s9.536-21.334 21.334-21.334h298.666c11.798 0 21.334 9.536 21.334 21.334s-9.536 21.334-21.334 21.334z" />
<glyph unicode="&#xe639;" d="M465.514 204.16c-1.771 2.538-43.99 62.805-102.25 104-30.208 21.397-68.31 33.173-107.264 33.173-38.934 0-77.034-11.776-107.306-33.173-58.261-41.195-100.438-101.462-102.208-104-5.078-7.317-5.078-17.024 0-24.341 1.77-2.538 43.947-62.805 102.208-104 30.272-21.376 68.374-33.152 107.306-33.152 38.954 0 77.056 11.776 107.264 33.173 58.262 41.195 100.48 101.462 102.25 104 5.099 7.296 5.099 17.024 0 24.32zM256 117.333c-41.258 0-74.666 33.493-74.666 74.666 0 41.259 33.408 74.667 74.666 74.667 41.173 0 74.666-33.408 74.666-74.667 0-41.173-33.493-74.666-74.666-74.666zM298.666 192c0-23.51-19.157-42.666-42.666-42.666-23.573 0-42.666 19.158-42.666 42.666 0 23.574 19.094 42.667 42.666 42.667 23.51 0 42.666-19.094 42.666-42.667z" />
<glyph unicode="&#xe63a;" d="M200.256 94.976l7.915-31.616c2.838-11.37 14.762-20.694 26.496-20.694h21.333c11.733 0 23.659 9.322 26.496 20.693l7.914 31.616c2.837 11.37 14.4 18.048 25.664 14.805l31.296-8.96c11.286-3.221 25.344 2.432 31.19 12.608l10.666 18.496c5.846 10.176 3.776 25.152-4.672 33.322l-23.424 22.635c-8.448 8.171-8.448 21.504 0.022 29.654l23.382 22.635c8.448 8.149 10.538 23.125 4.694 33.302l-10.688 18.496c-5.866 10.176-19.904 15.83-31.168 12.608l-31.296-8.96c-11.286-3.221-22.827 3.434-25.685 14.805l-7.894 31.574c-2.837 11.349-14.762 20.672-26.496 20.672h-21.333c-11.733 0-23.659-9.323-26.496-20.694l-7.893-31.573c-2.858-11.37-14.4-18.048-25.685-14.827l-31.296 8.96c-11.286 3.242-25.344-2.432-31.189-12.587l-10.666-18.496c-5.846-10.176-3.776-25.152 4.694-33.322l23.381-22.592c8.427-8.171 8.427-21.504 0-29.675l-23.424-22.635c-8.427-8.171-10.538-23.147-4.672-33.322l10.688-18.496c5.846-10.176 19.904-15.829 31.189-12.608l31.296 8.96c11.264 3.264 22.827-3.413 25.664-14.784zM245.333 245.333c23.552 0 42.667-19.094 42.667-42.667 0-23.552-19.115-42.666-42.666-42.666s-42.666 19.115-42.666 42.666c0 23.574 19.114 42.667 42.666 42.667z" />
<glyph unicode="&#xe63b;" d="M405.334 341.333h-33.834l-21.334 21.333c-12.352 12.352-34.026 21.334-51.498 21.334h-85.334c-17.472 0-39.147-8.982-51.499-21.334l-21.333-21.333h-33.834c-35.285 0-64-28.715-64-64v-170.667c0-35.286 28.715-64 64-64h298.666c35.286 0 64 28.714 64 64v170.667c0 35.286-28.714 64-64 64zM256 128c-41.238 0-74.666 33.45-74.666 74.666 0 41.259 33.429 74.666 74.666 74.666s74.666-33.408 74.666-74.666c0-41.216-33.43-74.666-74.666-74.666zM384 228.288c-15.339 0-27.733 12.374-27.733 27.712s12.394 27.754 27.733 27.754 27.733-12.416 27.733-27.754-12.394-27.712-27.733-27.712z" />
<glyph unicode="&#xe63c;" d="M274.603 187.925h109.397v109.376c-0.171 24.214-14.315 30.038-31.424 12.906l-24.618-24.704c-21.654 16.96-48.149 26.24-76.075 26.24-33.066 0-64.192-12.885-87.552-36.288-23.446-23.296-36.331-54.464-36.331-87.531 0-33.13 12.886-64.256 36.288-87.616 23.403-23.402 54.507-36.31 87.594-36.31 33.067 0 64.192 12.906 87.594 36.33 6.315 6.336 11.904 13.248 16.64 20.587 7.402 11.541 4.053 26.88-7.466 34.24-11.498 7.382-26.837 4.032-34.219-7.466-2.837-4.416-6.229-8.534-9.984-12.373-14.058-14.038-32.726-21.76-52.565-21.76-19.84 0-38.507 7.702-52.565 21.76-14.016 14.038-21.76 32.704-21.76 52.587 0 19.84 7.722 38.507 21.76 52.502 14.059 14.037 32.726 21.781 52.565 21.781 14.678 0 28.714-4.288 40.726-12.203l-30.89-30.955c-17.131-17.11-11.306-31.104 12.885-31.104z" />
<glyph unicode="&#xe63d;" d="M356.885 378.219c-8.298 8.341-21.781 8.384-30.166 0.085-2.219-2.219-3.755-4.843-4.8-7.574-17.75-37.034-37.291-57.92-61.952-70.25-27.669-13.654-59.435-23.146-110.635-23.146-2.774 0-5.547-0.534-8.149-1.622-5.226-2.176-9.365-6.336-11.541-11.541-2.154-5.206-2.154-11.094 0-16.299 1.088-2.624 2.645-4.992 4.63-6.954l69.184-69.184-96.79-129.067 129.066 96.789 69.162-69.163c1.962-2.005 4.33-3.541 6.954-4.63 2.603-1.088 5.376-1.664 8.149-1.664s5.546 0.576 8.149 1.664c5.226 2.176 9.387 6.293 11.541 11.541 1.088 2.582 1.642 5.376 1.642 8.128 0 51.2 9.472 82.966 23.104 110.208 12.31 24.661 33.195 44.203 70.25 61.952 2.752 1.045 5.354 2.582 7.552 4.8 8.298 8.384 8.256 21.867-0.086 30.166l-85.269 85.76z" />
<glyph unicode="&#xe63e;" d="M181.333 234.667c0-15.616 3.542-30.379 9.578-43.755l-84.246-84.245c0 0 0-14.336 0-32s19.115-32 42.666-32h42.666v42.666h42.666v42.666c0 0 49.685 0 53.334 0 58.923 0 106.666 47.744 106.666 106.667s-47.744 106.666-106.666 106.666-106.666-47.744-106.666-106.666zM288 192c-23.552 0-42.666 19.115-42.666 42.667 0 23.573 19.115 42.709 42.666 42.709 23.574 0 42.666-19.114 42.666-42.709 0-23.552-19.094-42.667-42.666-42.667z" />
<glyph unicode="&#xe63f;" d="M295.232 95.467c-0.128-0.043-11.925-3.968-22.166-3.968-5.654 0-7.936 1.173-8.661 1.685-3.584 2.496-10.24 7.168 1.152 29.866l21.334 42.538c12.651 25.259 14.528 49.685 5.226 68.8-7.594 15.637-22.166 26.368-40.96 30.208-6.762 1.387-13.632 2.070-20.438 2.070-39.446 0-66.006-23.040-67.114-24.022-3.819-3.37-4.714-8.96-2.176-13.355 2.56-4.394 7.829-6.4 12.694-4.736 0.107 0.042 11.925 3.989 22.166 3.989 5.611 0 7.872-1.173 8.576-1.664 3.606-2.518 10.282-7.254-1.088-29.91l-21.333-42.56c-12.672-25.28-14.528-49.707-5.226-68.8 7.595-15.637 22.144-26.368 40.981-30.208 6.698-1.344 13.568-2.070 20.352-2.070 39.467 0 66.048 23.040 67.157 24.022 3.818 3.349 4.714 8.96 2.176 13.354-2.56 4.373-7.872 6.336-12.651 4.757zM330.666 341.312c0-29.455-23.878-53.333-53.334-53.333s-53.334 23.878-53.334 53.333c0 29.455 23.878 53.334 53.334 53.334 29.455 0 53.334-23.878 53.334-53.334z" />
<glyph unicode="&#xe640;" d="M386.356 50.192h-260.711c-23.986 0-43.452 19.466-43.452 43.452v260.711c0 23.986 19.466 43.452 43.452 43.452h195.533l-43.452-43.452h-130.356c-11.993 0-21.725-9.733-21.725-21.726v-217.259c0-12.014 9.733-21.726 21.725-21.726h217.259c12.014 0 21.726 9.712 21.726 21.726v130.356l43.452 43.452v-195.533c0-23.986-19.466-43.452-43.452-43.452zM386.356 354.356l-21.726 21.726v21.726c0 0 65.178 0.673 65.178-65.178h-21.726l-21.726 21.726zM190.822 158.822v65.178h21.726l43.452-43.452v-21.726h-65.178zM386.356 310.903l-108.63-108.63-43.452 43.452 108.629 108.63 43.452-43.452z" />
<glyph unicode="&#xe641;" d="M341.334 64h-170.667c-35.285 0-64 28.714-64 64v170.667c0 35.285 28.715 64 64 64h106.667c11.798 0 21.334-9.558 21.334-21.333s-9.536-21.334-21.334-21.334h-106.666c-11.776 0-21.334-9.578-21.334-21.333v-170.667c0-11.755 9.558-21.334 21.334-21.334h170.667c11.776 0 21.334 9.579 21.334 21.334v64c0 11.776 9.536 21.334 21.334 21.334s21.334-9.558 21.334-21.334v-64c0-35.286-28.714-64-64-64zM280.875 152.896c-7.466 0-14.699 2.966-20.075 8.341l-56.917 56.896c-11.094 11.115-11.094 29.12 0 40.214 11.114 11.114 29.12 11.114 40.256 0l30.208-30.23 74.134 116.374c7.616 13.738 24.96 18.709 38.699 11.072 13.717-7.638 18.666-24.96 11.050-38.678l-92.459-149.334c-4.33-7.808-12.075-13.12-20.906-14.358-1.365-0.214-2.646-0.298-3.99-0.298z" />
<glyph unicode="&#xe642;" d="M405.334 337.408v3.926c0 35.349-28.651 64-64 64s-64-28.651-64-64h-42.666c0 35.349-28.65 64-64 64s-64-28.651-64-64v-3.926c-24.768-8.853-42.666-32.298-42.666-60.074v-192c0-35.286 28.715-64 64-64h256c35.286 0 64 28.714 64 64v192c0 27.776-17.899 51.221-42.666 60.074zM320 341.333c0 11.776 9.536 21.333 21.334 21.333s21.334-9.558 21.334-21.333v-42.667c0-11.776-9.536-21.333-21.334-21.333s-21.334 9.558-21.334 21.333v42.667zM149.333 341.333c0 11.776 9.536 21.333 21.333 21.333s21.334-9.558 21.334-21.333v-42.667c0-11.776-9.536-21.333-21.334-21.333s-21.334 9.558-21.334 21.333v42.667zM405.334 85.333c0-11.755-9.558-21.334-21.334-21.334h-256c-11.776 0-21.334 9.579-21.334 21.334v128h298.666v-128z" />
<glyph unicode="&#xe643;" d="M256 426.667c-106.048 0-192-85.952-192-192s85.952-192 192-192 192 85.952 192 192-85.952 192-192 192zM298.666 384c0-21.333-10.666-42.666-32-42.666s-32-21.334-32-42.667 0-64 0-64 21.334 0 21.334 64c0 11.798 9.536 21.334 21.334 21.334s21.334-9.536 21.334-21.334v-64c-11.776 0-21.334-9.558-21.334-21.334s9.558-21.334 21.334-21.334c11.798 0 21.334 9.558 21.334 21.334h21.334v42.667l21.334-21.334-21.334-21.334c0-64 0-64-42.666-85.334 0 21.334-21.334 21.334-64 21.334v42.666l-42.666 42.667v42.667c-21.334 0-21.334-21.334-21.334-21.334l-62.954 62.955c2.347 4.096 4.8 8.149 7.466 12.032l11.157 14.464c31.317 36.608 77.739 59.882 129.664 59.882 14.741 0 28.992-2.091 42.666-5.589v-15.744z" />
<glyph unicode="&#xe644;" d="M174.315 85.333c-10.923 0-21.824 4.16-30.166 12.502l-94.165 94.166 94.165 94.166c16.661 16.662 43.712 16.662 60.331 0 16.661-16.661 16.661-43.669 0-60.33l-33.814-33.835 33.814-33.834c16.661-16.661 16.661-43.67 0-60.33-8.32-8.341-19.243-12.502-30.166-12.502zM337.685 85.333c-10.923 0-21.846 4.16-30.166 12.502-16.661 16.661-16.661 43.67 0 60.33l33.813 33.834-33.813 33.835c-16.661 16.661-16.661 43.669 0 60.331 16.618 16.661 43.669 16.661 60.331 0l94.166-94.166-94.166-94.166c-8.32-8.341-19.243-12.502-30.166-12.502z" />
<glyph unicode="&#xe645;" d="M416 203.243c0 41.558-13.184 72.469-44.075 103.339-8.341 8.32-21.824 8.32-30.166 0-8.341-8.341-8.341-21.846 0-30.186 23.019-22.998 31.574-42.816 31.574-73.152 0-31.339-12.202-60.8-34.368-82.944-21.418-21.397-44.331-32.043-73.13-33.984l26.582 26.603c8.341 8.341 8.341 21.824 0 30.166s-21.824 8.341-30.166 0l-79.082-79.082 79.082-79.082c4.16-4.16 9.622-6.25 15.082-6.25s10.923 2.091 15.082 6.25c8.341 8.341 8.341 21.824 0 30.166l-28.522 28.502c41.024 1.75 75.563 16.896 105.238 46.528 30.229 30.208 46.87 70.379 46.87 113.13zM138.667 202.667c0 31.339 12.203 60.8 34.368 82.966 21.525 21.526 44.63 32.171 73.749 34.005l-27.2-27.2c-8.341-8.341-8.341-21.824 0-30.166 4.16-4.181 9.621-6.272 15.083-6.272s10.922 2.090 15.083 6.25l79.082 79.082-79.082 79.082c-8.341 8.341-21.824 8.341-30.166 0s-8.341-21.824 0-30.166l27.968-27.968c-40.832-1.834-75.2-16.981-104.683-46.486-30.23-30.208-46.87-70.378-46.87-113.13 0-41.558 13.184-72.469 44.075-103.339 4.16-4.16 9.621-6.229 15.083-6.229s10.922 2.091 15.083 6.25c8.341 8.341 8.341 21.846 0 30.187-23.018 22.976-31.573 42.795-31.573 73.13z" />
<glyph unicode="&#xe646;" d="M130.582 192c-11.797 0-21.334-9.558-21.334-21.334s9.536-21.334 21.334-21.334h31.254l-70.251-70.25c-8.341-8.341-8.341-21.824 0-30.166 4.16-4.16 9.621-6.25 15.082-6.25s10.922 2.091 15.082 6.25l72.832 72.832v-36.416c0-11.776 9.536-21.334 21.334-21.334s18.752 9.558 18.752 21.334v106.666h-104.085zM149.333 234.667c11.776 0 21.333 9.558 21.333 21.333v42.667h42.666c11.798 0 21.334 9.558 21.334 21.333s-9.536 21.334-21.334 21.334h-85.312l-0.022-85.334c0-11.776 9.536-21.333 21.334-21.333zM362.666 192c-11.798 0-21.334-9.558-21.334-21.334v-42.666h-42.666c-11.798 0-21.334-9.558-21.334-21.334s9.536-21.334 21.334-21.334h85.334v85.334c0 11.776-9.536 21.334-21.334 21.334zM390.25 377.749l-70.25-70.25v33.835c0 11.776-9.536 21.333-21.334 21.333s-21.334-9.558-21.334-21.333v-106.667h106.666c11.776 0 21.334 9.558 21.334 21.334s-9.536 21.333-21.334 21.333h-33.834l70.25 70.23c8.341 8.341 8.341 21.824 0 30.166s-21.824 8.363-30.166 0.022z" />
<glyph unicode="&#xe647;" d="M320 384c-11.798 0-21.334-9.558-21.334-21.333s9.536-21.333 21.334-21.333h33.834l-70.25-70.25c-8.341-8.341-8.341-21.824 0-30.166 4.16-4.16 9.622-6.25 15.082-6.25s10.923 2.090 15.082 6.25l70.25 70.25v-33.834c0-11.776 9.536-21.334 21.334-21.334s21.334 9.557 21.334 21.334v106.666h-106.666zM198.25 185.749l-70.251-70.25v33.834c0 11.776-9.536 21.334-21.334 21.334s-21.334-9.558-21.334-21.334v-106.645h21.248c0.171 0 85.418-0.022 85.418-0.022 11.776 0 21.333 9.558 21.333 21.334s-9.536 21.334-21.334 21.334h-33.834l70.25 70.229c8.341 8.341 8.341 21.824 0 30.166s-21.824 8.363-30.166 0.022zM149.333 213.333c11.776 0 21.333 9.558 21.333 21.334v64h64c11.798 0 21.334 9.558 21.334 21.334s-9.536 21.333-21.334 21.333h-106.645l-0.022-106.666c0-11.776 9.536-21.334 21.333-21.334zM362.666 213.333c-11.798 0-21.334-9.558-21.334-21.334v-64h-64c-11.798 0-21.334-9.558-21.334-21.334s9.536-21.334 21.334-21.334h106.666v106.666c0 11.776-9.536 21.334-21.334 21.334z" />
<glyph unicode="&#xe648;" d="M352 298.667h-44.502l27.584 27.584c8.341 8.341 8.341 21.824 0 30.166s-21.824 8.341-30.166 0l-79.082-79.082 79.082-79.083c4.16-4.16 9.622-6.25 15.082-6.25s10.923 2.091 15.082 6.25c8.341 8.341 8.341 21.824 0 30.166l-27.584 27.584h44.502c29.418 0 53.334-28.715 53.334-64s-28.714-64-64-64h-170.667c-35.285 0-64 28.714-64 64s28.715 64 64 64v0c11.797 0 21.333 9.558 21.333 21.333s-9.536 21.334-21.334 21.334v0c-58.816 0-106.666-47.851-106.666-106.667s47.85-106.666 106.666-106.666h170.667c58.816 0 106.666 47.851 106.666 106.666s-43.072 106.667-96 106.667z" />
<glyph unicode="&#xe649;" d="M432.747 317.461c-1.067 3.584-3.925 6.379-7.552 7.339-3.67 1.002-7.51-0.064-10.176-2.688l-55.808-54.55-40.832 8.171-8.128 40.683 56.426 55.147c2.688 2.624 3.798 6.464 2.923 10.112s-3.584 6.57-7.168 7.701c-11.328 3.541-21.717 5.291-31.765 5.291-58.816 0-106.666-47.851-106.666-106.667 0-6.89 0.81-13.866 2.518-21.546-11.989-9.877-23.381-18.389-36.288-28.032-18.453-13.781-39.36-29.376-67.882-53.462-16.746-14.635-26.346-35.392-26.346-56.96 0-41.173 33.493-74.666 74.666-74.666 21.781 0 42.517 9.728 56.79 26.666 24.512 28.736 40.342 49.834 54.272 68.459 9.43 12.608 17.75 23.702 27.37 35.413 7.68-1.728 14.678-2.538 21.568-2.538 58.816 0 106.666 47.851 106.666 106.666 0 9.322-1.45 18.667-4.587 29.462zM170.667 106.667c-11.797 0-21.333 9.536-21.333 21.334s9.536 21.334 21.334 21.334 21.334-9.536 21.334-21.334-9.536-21.334-21.334-21.334z" />
<glyph unicode="&#xe64a;" d="M346.666 229.333c7.765 0 15.019-3.094 20.992-8.342 11.712-7.082 16.341 0.726 16.341 8.342v37.333c0 17.6-14.4 32-32 32h-58.666c-7.594 0-15.445 4.608-8.341 16.341 5.248 5.974 8.341 13.206 8.341 20.992 0 20.63-21.483 37.334-48 37.334s-48-16.704-48-37.334c0-6.4 2.026-12.288 5.44-17.558 10.816-14.358 2.901-19.776-5.44-19.776h-58.666c-17.6 0-32-14.4-32-32v-37.333c0-8.342 5.418-16.256 19.797-5.206 5.248 3.179 11.136 5.206 17.536 5.206 20.608 0 37.334-21.504 37.334-48s-16.726-48-37.334-48c-7.766 0-15.018 3.094-20.992 8.341-11.712 7.082-16.341-0.726-16.341-8.341v-58.666c0-17.6 14.4-32 32-32h58.666c8.341 0 16.256 5.418 5.184 19.776-3.157 5.269-5.184 11.158-5.184 17.558 0 20.63 21.483 37.334 48 37.334s48-16.704 48-37.334c0-7.786-3.094-15.019-8.341-20.992-7.104-11.733 0.747-16.341 8.341-16.341h58.666c17.6 0 32 14.4 32 32v58.666c0 8.341-5.418 16.256-19.798 5.205-5.248-3.178-11.136-5.205-17.536-5.205-20.608 0-37.334 21.504-37.334 48s16.726 48 37.334 48z" />
<glyph unicode="&#xe64b;" d="M245.333 73.109c-37.035 0-71.85 14.421-98.048 40.598-26.176 26.197-40.618 61.014-40.618 98.070s14.442 71.872 40.618 98.070c8.341 8.341 21.824 8.341 30.166 0s8.341-21.824 0-30.166c-18.133-18.154-28.118-42.261-28.118-67.904s9.984-49.771 28.118-67.904c18.133-18.134 42.219-28.096 67.882-28.096s49.749 9.984 67.883 28.096c18.154 18.134 28.118 42.24 28.118 67.904s-9.984 49.771-28.118 67.904c-8.341 8.341-8.341 21.824 0 30.166s21.824 8.341 30.166 0c26.176-26.219 40.618-61.035 40.618-98.070s-14.442-71.872-40.618-98.070c-26.197-26.176-61.014-40.597-98.048-40.597zM245.333 234.667c-11.797 0-21.333 9.558-21.333 21.333v106.667c0 11.776 9.536 21.333 21.334 21.333s21.334-9.558 21.334-21.333v-106.667c0-11.776-9.536-21.333-21.334-21.333z" />
<glyph unicode="&#xe64c;" d="M392.171 377.216c-7.978 3.307-17.152 1.472-23.253-4.63-26.966-26.944-70.848-26.965-97.834 0-43.626 43.584-114.56 43.584-158.166 0-4.011-3.99-6.251-9.429-6.251-15.082v-277.334c0-11.776 9.536-21.334 21.334-21.334s21.333 9.558 21.333 21.334v97.13c27.114 21.269 66.582 19.435 91.584-5.546 43.627-43.584 114.582-43.584 158.166 0 4.010 4.010 6.25 9.43 6.25 15.082v170.667c0 8.64-5.205 16.405-13.163 19.712z" />
<glyph unicode="&#xe64d;" d="M402.986 319.744c17.238 10.582 28.651 25.024 34.24 43.392-16.768-8.896-33.472-14.998-50.154-18.368-14.998 16.128-33.984 24.32-56.746 24.32-22.25 0-41.046-7.808-56.384-22.998-15.253-15.296-22.954-33.877-22.954-55.573 0-6.592 0.832-12.48 2.496-17.472-65.621 2.24-119.936 29.462-162.731 81.856-7.254-12.822-10.88-25.878-10.88-39.382 0-27.755 11.712-49.75 35.094-65.898-13.334 1.131-25.088 4.501-35.094 10.027 0-19.819 5.824-36.374 17.493-50.944 11.712-14.421 26.752-23.616 45.12-27.541-6.656-1.707-13.674-2.517-20.886-2.517-6.656 0-11.37 0.555-14.165 1.771 4.906-16.149 14.165-29.248 27.541-39.274 13.333-10.070 28.672-15.382 45.91-15.851-28.416-22.293-60.906-33.322-97.664-33.322-9.002 0-15.382 0.128-19.242 0.81 36.202-23.51 76.501-35.178 121.088-35.178 45.632 0 85.952 11.563 121.046 34.688 35.094 22.998 60.992 51.37 77.632 84.779 16.726 33.365 25.002 68.096 25.002 104.363v9.984c16.171 12.16 29.248 25.856 39.254 40.982-14.507-6.25-29.504-10.496-45.014-12.651z" />
<glyph unicode="&#xe64e;" d="M277.334 256h64v-64h-64v-149.333h-64v149.333h-64v64h64v26.774c0 25.365 7.978 57.408 23.851 74.922 15.872 17.558 35.69 26.304 59.435 26.304h44.714v-64h-44.8c-10.624 0-19.2-8.576-19.2-19.178v-44.822z" />
<glyph unicode="&#xe64f;" d="M256 405.333c-105.856 0-192-86.123-192-192s86.144-192 192-192 192 86.123 192 192-86.144 192-192 192zM404.522 228.8c-37.654 6.166-75.392 3.989-111.040-5.59-3.84 9.302-8.171 18.326-12.587 27.371 30.336 17.28 57.28 40.79 79.211 69.59 24.384-23.744 40.726-55.702 44.416-91.371zM344.106 333.632c-20.032-26.518-44.8-48.192-72.555-64.192-16.683 30.827-36.886 59.733-59.882 86.528 14.016 4.352 28.906 6.699 44.331 6.699 32.96 0 63.381-10.88 88.107-29.034zM190.869 347.499c23.872-26.986 44.65-56.426 61.696-87.829-43.968-20.416-93.781-27.606-143.296-19.179 8.704 47.189 39.68 86.57 81.6 107.008zM106.666 213.333c0 2.134 0.234 4.16 0.32 6.272 14.421-2.368 28.864-4.010 43.178-4.010 38.976 0 76.95 9.088 111.722 25.322 3.882-7.958 7.786-15.872 11.2-24.043-51.819-18.474-97.77-53.034-130.155-100.822-22.528 26.176-36.267 60.118-36.267 97.28zM157.718 101.184c30.506 45.418 73.92 78.358 122.965 95.722 14.57-39.552 23.957-80.96 27.563-123.286-16.277-6.123-33.856-9.622-52.245-9.622-37.654 0-72 14.101-98.282 37.184zM328.683 83.008c-4.182 41.216-13.462 81.536-27.584 120.149 33.365 8.618 68.736 10.368 103.915 4.053-2.176-53.376-32.341-99.584-76.331-124.202z" />
<glyph unicode="&#xe650;" d="M403.627 282.112c-7.019-41.152-25.834-80.171-56.512-116.907-30.635-36.8-57.813-63.082-81.472-78.827-14.912-7.062-27.584-7.253-38.101-0.726-10.518 6.613-18.838 16.022-24.939 28.267-3.52 6.998-12.054 33.472-25.643 79.531-13.568 45.974-21.696 70.72-24.298 74.219-1.77 3.477-6.144 3.925-13.142 1.301-7.040-2.603-11.84-4.821-14.464-6.592-2.624-1.728-4.822-3.52-6.57-5.226l-11.819 15.723 13.141 15.786c9.643 10.496 21.888 21.482 36.779 32.853 14.934 11.392 28.032 18.389 39.424 21.056 7.915 1.707 14.486 0.597 19.712-3.328 5.269-3.925 9.643-10.326 13.142-19.072 3.52-8.726 6.166-17.302 7.872-25.578 1.77-8.363 3.52-18.219 5.291-29.59 1.728-11.392 3.499-20.16 5.248-26.282 9.622-41.174 17.514-61.782 23.659-61.782 8.747 0 22.762 18.411 42.048 55.254 8.747 16.619 9.216 30.421 1.322 41.408-7.872 10.923-20.118 11.136-36.779 0.619 2.624 16.64 10.070 31.062 22.315 43.328 21.888 23.659 46.016 32.448 72.278 26.326 27.158-5.269 37.654-25.877 31.51-61.76z" />
<glyph unicode="&#xe651;" d="M266.368 367.552c-90.24 0-135.744-64.704-135.744-118.656 0-32.704 12.394-61.739 38.891-72.555 4.374-1.792 8.256-0.086 9.514 4.714 0.875 3.349 2.944 11.798 3.882 15.296 1.302 4.714 0.79 6.4-2.709 10.56-7.659 9.002-12.544 20.736-12.544 37.27 0 48 35.904 90.966 93.525 90.966 51.029 0 79.062-31.211 79.062-72.79 0-54.784-24.256-100.992-60.245-100.992-19.882 0-34.752 16.426-29.974 36.587 5.718 24.107 16.768 50.070 16.768 67.413 0 15.552-8.363 28.502-25.6 28.502-20.309 0-36.65-20.992-36.65-49.152 0-17.941 6.101-30.059 6.101-30.059s-20.822-88.086-24.448-103.51c-7.254-30.72-1.088-68.394-0.534-72.214 0.278-2.219 3.179-2.795 4.48-1.088 1.877 2.454 26.090 32.363 34.282 62.187 2.368 8.448 13.376 52.16 13.376 52.16 6.635-12.565 25.877-23.637 46.4-23.637 61.077 0 102.486 55.637 102.486 130.197-0.064 56.32-47.786 108.8-120.32 108.8z" />
<glyph unicode="&#xe652;" d="M170.667 64h-64v213.334h64v-213.334zM405.334 64h-64v113.963c0 29.696-10.582 44.48-31.552 44.48-16.618 0-27.157-8.278-32.448-24.854 0-26.923 0-133.589 0-133.589h-64c0 0 0.853 192 0 213.334h50.517l3.904-42.667h1.322c13.12 21.334 34.091 35.798 62.848 35.798 21.866 0 39.552-6.080 53.056-21.355 13.589-15.296 20.352-35.819 20.352-64.64v-120.469zM171.733 330.667c0-17.673-14.804-32-33.066-32s-33.066 14.327-33.066 32c0 17.673 14.805 32 33.066 32 18.262 0 33.066-14.327 33.066-32z" />
<glyph unicode="&#xe653;" d="M307.947 192.576c5.738 0 10.496-2.837 14.635-8.448 4.096-5.654 6.272-12.544 6.272-20.8 0-8.214-2.176-15.168-6.272-20.757-4.118-5.654-8.896-8.448-14.635-8.448-5.93 0-11.136 2.795-15.253 8.448-4.096 5.589-6.272 12.544-6.272 20.757 0 8.256 2.176 15.147 6.272 20.8 4.096 5.632 9.301 8.448 15.253 8.448zM381.334 268.501c15.914-17.302 24-38.294 24-62.998 0-15.957-1.834-30.358-5.526-43.157-3.733-12.736-8.406-23.125-13.952-31.125-5.632-8.022-12.544-15.040-20.779-21.099-8.235-6.101-15.808-10.496-22.72-13.291-6.933-2.816-14.827-4.971-23.702-6.528-8.896-1.514-15.488-2.368-20.118-2.624-4.544-0.192-9.344-0.298-14.613-0.298-1.173 0-5.184-0.086-11.669-0.32-6.421-0.277-11.947-0.341-16.256-0.341s-9.834 0.064-16.256 0.341c-6.486 0.235-10.496 0.32-11.669 0.32-5.248 0-10.070 0.106-14.613 0.298-4.65 0.256-11.221 1.11-20.118 2.624-9.024 1.536-16.768 3.712-23.702 6.528-6.912 2.795-14.506 7.19-22.698 13.291-8.256 6.058-15.168 13.077-20.8 21.099-5.568 8-10.219 18.389-13.952 31.125-3.691 12.8-5.525 27.2-5.525 43.158 0 24.704 8.085 45.718 24 62.998-1.75 0.875-1.814 9.536-0.171 25.963 1.344 16.448 4.843 31.616 10.56 45.483 19.925-2.112 44.587-13.418 74.048-33.728 9.941 2.538 23.488 3.904 40.896 3.904 18.176 0 31.808-1.365 40.918-3.925 13.418 9.066 26.24 16.448 38.507 22.058 12.459 5.568 21.44 8.875 27.072 9.75l8.448 1.92c5.76-13.845 9.259-29.013 10.582-45.482 1.622-16.406 1.558-25.067-0.192-25.942zM256.64 101.675c36.010 0 63.019 4.31 81.514 12.95 18.24 8.618 27.563 26.411 27.563 53.248 0 15.574-5.824 28.587-17.536 38.998-5.93 5.611-13.077 9.067-21.099 10.368-8 1.302-20.245 1.302-36.693 0-16.406-1.322-27.69-1.92-33.75-1.92-8.214 0-17.066 0.384-28.138 1.258-11.094 0.853-19.797 1.387-26.090 1.664-6.272 0.192-12.992-0.576-20.438-2.304-7.36-1.75-13.418-4.779-18.197-9.067-11.114-10.005-16.853-22.976-16.853-38.998 0-26.837 9.088-44.63 27.306-53.248 18.133-8.64 45.078-12.95 81.109-12.95h1.301zM204.714 192.576c5.718 0 10.496-2.837 14.613-8.448 4.096-5.654 6.272-12.544 6.272-20.8 0-8.214-2.176-15.168-6.272-20.757-4.096-5.654-8.896-8.448-14.613-8.448-5.952 0-11.136 2.795-15.274 8.448-4.096 5.589-6.272 12.544-6.272 20.757 0 8.256 2.176 15.147 6.272 20.8 4.118 5.632 9.302 8.448 15.274 8.448z" />
<glyph unicode="&#xe654;" d="M256 384c-94.101 0-170.667-76.565-170.667-170.666s76.566-170.667 170.667-170.667c34.474 0 67.669 10.219 95.978 29.526 9.728 6.656 12.245 19.925 5.611 29.654-6.635 9.75-19.882 12.202-29.654 5.611-21.205-14.486-46.080-22.123-71.936-22.123-70.592 0-128 57.408-128 128s57.408 128 128 128 128-57.408 128-128v-10.666c0-11.776-9.558-21.334-21.334-21.334s-21.334 9.558-21.334 21.334v64c0 11.798-9.536 21.334-21.334 21.334-9.408 0-17.173-6.187-20.010-14.678-12.373 9.109-27.498 14.678-43.989 14.678-41.173 0-74.667-33.494-74.667-74.667s33.493-74.666 74.666-74.666c22.293 0 42.133 10.026 55.808 25.579 11.69-15.424 30.038-25.579 50.858-25.579 35.286 0 64 28.714 64 64v10.666c0 94.101-76.565 170.667-170.667 170.667zM256 181.333c-17.642 0-32 14.358-32 32s14.357 32 32 32 32-14.357 32-32-14.358-32-32-32z" />
<glyph unicode="&#xe655;" d="M442.030 279.903v-170.68c0-25.436-20.634-46.080-46.080-46.080h-279.9c-25.447 0-46.080 20.644-46.080 46.080v208.22c0 25.457 20.633 46.080 46.080 46.080h98.99c22.528 0 41.206-16.179 45.22-37.54h135.69c25.447 0 46.080-20.624 46.080-46.080z" />
<glyph unicode="&#xe656;" d="M263.065 335.796c-0.329-0.329-6.445-0.992-13.715-1.652-7.27-0.661-13.549-1.322-14.045-1.652-0.495-0.329-4.462-0.992-8.923-1.488-4.462-0.661-9.418-1.817-11.236-2.809-1.652-0.827-2.975-1.322-2.975-0.827 0 0.495-2.479 0-5.288-0.827-2.975-0.992-6.61-1.982-7.931-2.314-29.083-7.27-76.174-31.56-115.336-59.651-23.133-16.358-34.865-27.099-38.996-35.196-4.296-8.097-3.801-19.003 1.157-26.438 8.427-12.558 46.101-43.457 73.366-59.816l13.549-8.262 28.917 19.993 28.751 19.993-2.975 6.94c-13.22 30.074-5.784 71.052 17.351 96.829 7.105 7.931 27.099 21.482 35.526 24.125 0.495 0.166 2.149 0.827 3.801 1.322 1.488 0.661 4.131 1.652 5.784 2.149 1.488 0.661 9.914 1.488 18.671 1.817 24.952 1.322 45.276-5.618 65.103-21.976 3.801-3.139 7.436-5.618 8.097-5.618 0.827 0 30.899 20.655 39.657 27.264 3.966 2.974 4.296 2.808-8.923 7.931-28.421 11.071-64.774 18.838-92.863 19.993-8.923 0.33-16.358 0.33-16.524 0.166zM406.163 314.647c-4.462-2.975-18.837-12.888-32.055-21.812s-29.577-20.159-36.352-24.785c-6.774-4.627-21.976-15.037-33.873-23.133-23.794-16.193-40.813-27.925-72.044-49.241-20.325-13.88-47.919-32.717-85.263-58.329-10.244-6.94-18.838-13.219-18.838-14.045-0.165-0.827-0.329-2.479-0.496-3.471-0.496-3.471 2.479-6.279 6.61-6.279 2.149 0 19.994 11.071 43.127 26.933 21.647 14.707 45.77 31.231 53.868 36.682 15.697 10.74 30.404 20.82 112.692 77.001 30.074 20.489 59.816 40.979 66.425 45.441 12.063 8.262 15.697 13.715 11.897 18.176-2.974 3.636-7.105 2.809-15.697-3.139zM413.433 293.166c-1.156-1.156-8.097-6.113-15.367-11.071-11.401-7.601-18.010-12.228-36.682-25.611-3.139-2.148-3.471-3.139-1.983-7.105 6.113-15.367 7.601-42.136 3.139-57.337-5.949-20.655-19.663-39.988-36.682-51.719-4.296-2.974-8.427-5.288-9.253-5.288-0.992 0-1.983-0.661-2.314-1.322-0.992-2.644-23.299-8.592-34.865-9.584-21.647-1.817-51.224 7.766-65.269 20.986l-5.288 4.957-21.482-15.037c-11.897-8.262-21.482-15.367-21.482-15.697s3.47-1.817 7.931-3.305c4.296-1.652 9.253-3.471 11.071-4.13 12.063-4.792 35.856-10.74 49.901-12.393 4.296-0.495 10.575-1.322 13.715-1.817 7.105-0.992 45.77-0.992 50.564 0 1.983 0.329 7.436 1.156 12.393 1.817 4.957 0.495 13.385 2.149 18.837 3.635 5.452 1.322 11.236 2.808 12.888 3.139 9.418 1.817 29.909 9.418 47.093 17.351 7.601 3.635 14.211 6.445 14.541 6.445 4.13 0 53.041 33.048 68.409 46.101 30.404 25.942 35.856 35.856 29.247 51.885-3.966 9.253-20.655 23.629-53.207 46.101-22.803 15.697-33.543 21.315-35.856 19.003zM261.413 250.039c-12.723-4.626-22.142-16.689-23.464-30.238-1.156-11.402 0.827-11.732 13.385-2.809 6.113 4.462 17.68 12.559 25.777 18.011 7.931 5.288 14.211 10.575 13.88 11.401-0.827 2.479-10.74 5.784-17.68 5.784-3.139 0-8.427-0.992-11.897-2.149zM287.356 205.094c-10.906-7.601-21.976-15.532-24.62-17.516l-4.792-3.471 4.792-1.983c12.393-4.957 30.569 1.322 39.161 13.55 4.296 6.113 8.427 21.315 6.279 22.637-0.495 0.329-9.914-5.618-20.82-13.219z" horiz-adv-x="555" />
<glyph unicode="&#xe657;" d="M512 272.572v-226.857q0-18.857-13.428-32.286t-32.286-13.428h-420.572q-18.857 0-32.285 13.428t-13.428 32.286v226.857q12.572-14 28.857-24.857 103.429-70.286 142-98.572 16.285-12 26.429-18.714t27-13.714 31.428-7h0.572q14.572 0 31.428 7t27 13.714 26.428 18.714q48.572 35.143 142.286 98.572 16.286 11.143 28.572 24.857zM512 356.572q0-22.571-14-43.143t-34.857-35.143q-107.428-74.571-133.714-92.857-2.857-2-12.143-8.714t-15.428-10.857-14.857-9.286-16.428-7.714-14.286-2.572h-0.571q-6.571 0-14.286 2.572t-16.429 7.714-14.857 9.286-15.429 10.857-12.143 8.714q-26 18.286-74.857 52.143t-58.572 40.715q-17.715 12-33.428 33t-15.714 39q0 22.285 11.857 37.143t33.857 14.857h420.572q18.572 0 32.143-13.428t13.572-32.286z" />
<glyph unicode="&#xe658;" d="M329.842 273.305c0-41.89-33.957-75.847-75.846-75.847-41.886 0-75.846 33.957-75.846 75.847s33.957 75.846 75.842 75.846c41.889 0 75.851-33.957 75.851-75.846zM406.73 50.114c-1.627-1.68-4.202-2.029-6.219-0.851l-55.333 32.294c-0.57-6.271-1.399-15.461-2.25-24.641-0.755-8.171-1.52-16.333-2.116-22.461-0.303-3.079-0.562-5.649-0.76-7.445-0.349-3.226-0.786-7.242-5.307-7.35-0.022 0-0.048 0-0.069 0-1.343-0.017-2.63 0.497-3.598 1.43-0.799 0.774-1.33 1.892-1.507 3.014-1.813 6.253-30.165 71.429-53.325 124.084l-4.522-3.399c-1.611-1.205-3.368-2.236-5.212-3.041-8.205-3.584-17.883-2.643-25.246 2.453l-8.024 5.553c-22.297-52.254-48.795-115.041-50.501-121.182-0.164-1.123-0.678-2.245-1.477-3.027-0.954-0.942-2.245-1.473-3.58-1.473-0.022 0-0.048 0-0.069 0.005-4.525 0.060-5 4.068-5.389 7.29-0.216 1.792-0.497 4.361-0.833 7.441-0.665 6.115-1.52 14.273-2.358 22.431-0.95 9.176-1.883 18.349-2.518 24.615l-54.978-32.881c-2.012-1.2-4.587-0.877-6.227 0.786-1.65 1.663-1.951 4.236-0.734 6.236l67.469 110.684c-9.371 2.729-16.536 10.507-18.32 20.323l-6.469 35.607-21.749 28.939c-6.75 8.974-6.983 21.212-0.588 30.45l20.603 29.763 5.078 35.835c1.261 8.866 7.138 16.609 15.348 20.188 1.844 0.812 3.787 1.399 5.769 1.762l35.614 6.473 28.934 21.744c1.615 1.213 3.368 2.237 5.208 3.040 8.331 3.645 17.767 2.73 25.247-2.448l29.75-20.6 35.839-5.087c11.125-1.577 19.943-10.067 21.956-21.118l6.469-35.61 21.743-28.93c6.75-8.978 6.983-21.217 0.592-30.458l-20.603-29.759-5.078-35.831c-1.261-8.875-7.139-16.609-15.348-20.197-1.844-0.808-3.787-1.395-5.765-1.757l-1.542-0.281 72.663-116.363c1.24-1.986 0.964-4.565-0.67-6.249zM341.304 273.305c0 48.221-39.096 87.313-87.313 87.313-48.221 0-87.313-39.091-87.313-87.313s39.091-87.313 87.313-87.313c48.216 0 87.313 39.092 87.313 87.313z" />
<glyph unicode="&#xe659;" d="M288 256h64v-160h-64zM480 384h-128v64c0 17.688-14.312 32-32 32h-128c-17.688 0-32-14.312-32-32v-64h-128c-17.688 0-32-14.312-32-32v-32h32v-320c0-17.688 14.312-32 32-32h384c17.688 0 32 14.312 32 32v320h32v32c0 17.688-14.312 32-32 32zM224 416h64v-32h-64v32zM416 32h-320v288h320v-288zM160 256h64v-160h-64z" />
<glyph unicode="&#xe65a;" d="M245.284 226.999l-21.909 6.052-13.276 21.602-7.137-7.137c-26.153 12.242-58.332 7.577-79.897-13.988l-75.397-75.407c-27.53-27.525-27.53-72.315-0.005-99.84s72.315-27.525 99.84 0.005l75.407 75.402c22.502 22.498 26.588 56.53 12.304 83.241l10.071 10.071zM199.864 156.721l-75.402-75.402c-14.823-14.822-38.932-14.822-53.76 0-14.822 14.827-14.822 38.938 0 53.76l75.407 75.408c8.392 8.387 19.758 12.022 30.74 10.911l-20.132-20.132c-8.658-8.658-8.658-22.753 0-31.421 8.658-8.658 22.754-8.658 31.422 0.005l21.929 21.929c2.673-12.247-0.702-25.554-10.204-35.056zM480.491 343.202c-13.655 36.45-54.425 54.994-90.875 41.334l-99.861-37.412c-28.565-10.701-46.131-38.052-45.819-66.928l-18.529-6.938 2.97-23.792 18.617-15.565 11.428 4.286c18.401-24.069 51.077-34.437 80.87-23.271l99.856 37.412c36.454 13.65 54.999 54.416 41.344 90.875zM427.714 282.832l-99.856-37.412c-12.585-4.715-26.096-2.279-36.137 5.232l17.95 6.722c11.469 4.301 17.305 17.127 13.010 28.595-4.301 11.474-17.127 17.31-28.595 13.015l-15.565-5.837c3.533 10.455 11.55 19.303 22.661 23.465l99.861 37.412c19.63 7.357 41.579-2.632 48.937-22.262 7.347-19.625-2.637-41.579-22.267-48.932zM254.024 227.034l30.433-18.079-11.556-42.327-8.571 2.34 9.774 35.794-28.953 17.209 8.873 5.064zM183.173 274.743l-18.028 33.935 7.849 4.167 15.887-29.895 17.081-2.274 11.484-18.683-6.462-6.462-10.388 16.896-17.423 2.314z" />
<glyph unicode="&#xe65b;" d="M406.268 327.343c-0.024 1.901-0.626 3.779-1.93 5.262l-79.916 91.282c-0.017 0.024-0.041 0.033-0.065 0.057-0.476 0.533-1.024 0.971-1.609 1.357-0.175 0.114-0.349 0.216-0.533 0.317-0.516 0.276-1.048 0.504-1.605 0.671-0.151 0.045-0.284 0.106-0.435 0.147-0.61 0.147-1.231 0.231-1.865 0.231h-196.405c-8.96 0-16.254-7.294-16.254-16.254v-381.969c0-8.964 7.294-16.254 16.254-16.254h268.19c8.968 0 16.254 7.29 16.254 16.254v297.988c0 0.305-0.049 0.606-0.082 0.91zM232.070 32.736h-76.642v11.995l46.953 67.572v0.589h-42.565v18.428h71.525v-12.873l-45.929-66.698v-0.581h46.657v-18.432zM268.507 32.736h-22.381v98.581h22.381v-98.581zM349.541 77.93c-7.603-7.168-18.867-10.382-32.032-10.382-2.93 0-5.555 0.142-7.603 0.435v-35.251h-22.089v97.268c6.872 1.175 16.522 2.048 30.127 2.048 13.755 0 23.548-2.629 30.135-7.896 6.286-4.974 10.533-13.161 10.533-22.817 0-9.655-3.223-17.847-9.070-23.406zM121.905 150.687v259.726h97.198v2.556h24.649v-2.556h66.43v-83.163c0-4.486 3.637-8.127 8.127-8.127h71.786l0.008-168.436h-268.199zM319.118 115.229c-4.539 0-7.611-0.439-9.216-0.882v-29.103c1.897-0.439 4.238-0.589 7.461-0.589 11.841 0 19.159 6.002 19.159 16.087 0 9.074-6.291 14.486-17.404 14.486zM243.752 396.63h24.649v-10.171h-24.649v10.171zM219.103 410.413h24.649v-7.619h-24.649v7.619zM219.103 381.408h24.649v-10.171h-24.649v10.171zM243.752 364.755h24.649v-10.171h-24.649v10.171zM243.752 332.617h24.649v-10.171h-24.649v10.171zM219.103 348.953h24.649v-10.171h-24.649v10.171zM243.752 314.141c-17.452 0-25.755-14.141-25.755-31.598l-5.844-52.935c0-17.457 14.141-31.606 31.594-31.606s31.586 14.149 31.586 31.606l-5.827 52.935c0.008 17.452-8.301 31.597-25.755 31.597zM254.225 211.883h-20.919v44.19h20.919v-44.19z" />
<glyph unicode="&#xe65c;" d="M448 480h-384c-35.328 0-64-28.672-64-64v-384c0-35.328 28.672-64 64-64h384c35.328 0 64 28.672 64 64v384c0 35.328-28.672 64-64 64zM384 416h32c17.696 0 32-14.304 32-32v-64h-64v96zM448 288v-128h-64v128h64zM192 416h128v-160h-128v160zM128 32h-32c-17.664 0-32 14.304-32 32v64h64v-96zM128 160h-64v128h64v-128zM128 320h-64v64c0 17.696 14.336 32 32 32h32v-96zM320 32h-128v160h128v-160zM416 32h-32v96h64v-64c0-17.696-14.304-32-32-32z" />
<glyph unicode="&#xe65d;" d="M407.040 449.829h-124.697c-32.681 0-73.841-4.823-108.329-33.229-26.061-22.395-38.738-53.207-38.738-81.040 0-47.16 36.322-94.955 100.48-94.955 6.052 0 12.682 0.614 19.389 1.203-3.031-7.234-6.088-13.281-6.088-23.577 0-18.755 9.692-30.224 18.16-41.113-27.208-1.802-78.070-4.823-115.62-27.791-35.712-21.207-46.628-52.019-46.628-73.8-0.010-44.749 42.378-86.498 130.161-86.498 104.12 0 159.222 57.447 159.222 114.329 0 41.687-24.217 62.279-50.852 84.654l-21.801 16.921c-6.63 5.453-15.708 12.692-15.708 26.010 0 13.296 9.078 21.78 16.932 29.639 25.411 19.947 50.852 41.113 50.852 85.863 0 45.972-29.082 70.164-42.988 81.649h37.55l38.702 21.734zM353.813 79.76c0-37.494-30.889-65.296-89.011-65.296-64.758 0-106.542 30.843-106.542 73.753 0 42.967 38.748 57.436 52.050 62.279 25.441 8.478 58.122 9.682 63.56 9.682 6.062 0 9.088 0 13.952-0.594 46.019-32.65 65.991-48.993 65.991-79.826zM305.372 274.474c-9.692-9.656-26.050-16.921-41.19-16.921-52.040 0-75.638 67.138-75.638 107.638 0 15.728 3.031 32.041 13.302 44.749 9.692 12.094 26.629 19.963 42.378 19.963 50.233 0 76.288-67.732 76.288-111.257 0-10.905-1.234-30.238-15.14-44.17z" />
<glyph unicode="&#xe65e;" d="M405.837 326.766c-0.024 1.901-0.626 3.779-1.93 5.262l-79.921 91.286c-0.017 0.024-0.041 0.033-0.065 0.057-0.476 0.532-1.024 0.971-1.609 1.357-0.175 0.114-0.349 0.216-0.533 0.317-0.516 0.276-1.048 0.504-1.605 0.671-0.151 0.045-0.284 0.106-0.435 0.147-0.61 0.142-1.231 0.231-1.865 0.231h-196.405c-8.96 0-16.254-7.294-16.254-16.254v-381.968c0-8.964 7.294-16.254 16.254-16.254h268.191c8.968 0 16.254 7.29 16.254 16.254v297.984c0 0.309-0.049 0.609-0.077 0.91zM199.725 32.374l-9.126 18.253c-3.738 7.030-6.136 12.267-8.976 18.103h-0.3c-2.097-5.839-4.637-11.073-7.778-18.103l-8.383-18.253h-26.030l29.176 51.021-28.127 49.822h26.181l8.826-18.404c2.99-6.132 5.238-11.073 7.636-16.754h0.292c2.398 6.433 4.34 10.923 6.88 16.754l8.534 18.404h26.030l-28.424-49.225 29.928-51.618h-26.335zM301.304 32.374h-62.993v100.839h22.898v-81.692h40.094v-19.147zM339.448 30.879c-11.516 0-22.889 2.99-28.57 6.136l4.637 18.851c6.136-3.137 15.563-6.282 25.287-6.282 10.476 0 16.006 4.336 16.006 10.923 0 6.286-4.787 9.878-16.904 14.214-16.754 5.835-27.685 15.112-27.685 29.773 0 17.205 14.365 30.375 38.161 30.375 11.365 0 19.745-2.397 25.73-5.087l-5.087-18.404c-4.039 1.947-11.224 4.791-21.094 4.791s-14.657-4.486-14.657-9.728c0-6.433 5.681-9.277 18.7-14.214 17.802-6.583 26.181-15.856 26.181-30.070-0.004-16.916-13.019-31.276-40.704-31.276zM121.47 150.11v259.726h188.278v-83.163c0-4.486 3.637-8.127 8.127-8.127h71.786l0.008-168.436h-268.199zM279.609 321.967h-134.774v-125.969h206.222v125.969h-71.448zM279.609 261.015h-63.322v26.412h63.322v-26.412zM148.899 317.903h63.322v-26.412h-63.322v26.412zM148.899 287.427h63.322v-26.412h-63.322v26.412zM148.899 256.951h63.322v-26.412h-63.322v26.412zM148.899 200.062v26.412h63.322v-26.412h-63.322zM216.287 200.062v26.412h63.321v-26.412h-63.322zM346.994 200.062h-63.322v26.412h63.322v-26.412zM346.994 261.015h-63.322v26.412h63.322v-26.412zM283.673 291.491v26.412h63.322v-26.412h-63.322z" />
<glyph unicode="&#xe65f;" d="M406.268 327.347c-0.024 1.901-0.634 3.775-1.938 5.262l-79.909 91.286c-0.024 0.020-0.049 0.033-0.065 0.053-0.476 0.536-1.032 0.971-1.618 1.357-0.175 0.114-0.349 0.22-0.533 0.317-0.508 0.281-1.041 0.504-1.605 0.671-0.151 0.045-0.284 0.11-0.435 0.142-0.601 0.147-1.231 0.232-1.865 0.232h-196.397c-8.96 0-16.254-7.29-16.254-16.254v-381.969c0-8.96 7.294-16.254 16.254-16.254h268.19c8.96 0 16.254 7.294 16.254 16.254v297.992c0 0.305-0.049 0.606-0.082 0.91zM203.374 49.595h-17.778l-6.136 31.232c-1.406 7.33-2.581 14.116-3.446 22.406h-0.215c-1.292-8.184-2.483-15.075-4.197-22.406l-6.895-31.232h-17.993l-17.221 72.59h17.546l5.494-29.94c1.618-8.611 3.129-17.989 4.311-25.312h0.224c1.174 7.859 2.905 16.587 4.73 25.523l6.144 29.724h17.453l5.819-30.59c1.609-8.509 2.796-16.262 3.873-24.341h0.215c1.081 8.078 2.69 16.587 4.206 25.206l5.921 29.724h16.689l-18.741-72.586zM293.103 49.595l-1.081 27.79c-0.325 8.721-0.642 19.281-0.642 29.838h-0.325c-2.264-9.265-5.279-19.611-8.078-28.12l-8.834-28.33h-12.817l-7.753 28.12c-2.365 8.513-4.839 18.846-6.563 28.331h-0.224c-0.427-9.801-0.756-21.009-1.284-30.053l-1.292-27.571h-15.19l4.629 72.586h21.865l7.103-24.231c2.264-8.399 4.522-17.449 6.144-25.957h0.317c2.048 8.395 4.531 17.985 6.896 26.063l7.753 24.125h21.439l3.982-72.59h-16.046zM358.063 49.595h-19.175l-23.264 72.59h17.993l8.826-30.695c2.474-8.611 4.738-16.913 6.461-25.962h0.333c1.825 8.724 4.088 17.351 6.563 25.64l9.26 31.017h17.445l-24.442-72.59zM121.905 150.691v259.722h188.269v-83.159c0-4.486 3.641-8.127 8.127-8.127h71.794v-168.436h-268.19zM251.929 337.14c-42.35 0-76.8-34.454-76.8-76.804s34.454-76.804 76.8-76.804c42.358 0 76.808 34.454 76.808 76.804s-34.45 76.804-76.808 76.804zM251.929 197.527c-34.625 0-62.809 28.176-62.809 62.81s28.185 62.81 62.81 62.81c34.633 0 62.817-28.177 62.817-62.81s-28.185-62.81-62.817-62.81zM228.974 306.062c-0.736-0.337-1.198-1.101-1.198-1.906v-90.169c0-0.805 0.463-1.56 1.198-1.897l0.93-0.219c0.476 0 0.93 0.166 1.316 0.463l70.599 45.080c0.504 0.415 0.805 1.036 0.805 1.678 0 0.634-0.3 1.248-0.805 1.674l-70.599 45.064c-0.642 0.508-1.512 0.601-2.247 0.232z" />
<glyph unicode="&#xe660;" d="M406.268 327.343c-0.024 1.901-0.634 3.779-1.938 5.262l-79.909 91.282c-0.024 0.024-0.049 0.033-0.065 0.057-0.476 0.533-1.032 0.971-1.618 1.357-0.175 0.114-0.349 0.216-0.533 0.317-0.508 0.276-1.041 0.504-1.605 0.671-0.151 0.045-0.284 0.106-0.435 0.147-0.601 0.147-1.231 0.231-1.865 0.231h-196.397c-8.96 0-16.254-7.294-16.254-16.254v-381.969c0-8.964 7.294-16.254 16.254-16.254h268.19c8.96 0 16.254 7.29 16.254 16.254v297.988c0 0.305-0.049 0.606-0.082 0.91zM207.206 111.665h-26.912v-79.86h-22.374v79.86h-26.477v18.721h75.764v-18.721zM273.62 31.805l-8.919 17.847c-3.657 6.872-6.002 11.991-8.777 17.697h-0.292c-2.048-5.705-4.531-10.825-7.603-17.697l-8.192-17.847h-25.453l28.525 49.875-27.501 48.709h25.596l8.635-17.993c2.922-5.993 5.12-10.821 7.461-16.38h0.293c2.332 6.291 4.238 10.679 6.721 16.38l8.342 17.993h25.454l-27.795-48.12 29.253-50.464h-25.747zM380.554 111.665h-26.913v-79.86h-22.382v79.86h-26.478v18.721h75.768v-18.721zM121.905 150.687v259.726h188.269v-83.163c0-4.486 3.641-8.127 8.127-8.127h71.794v-168.436h-268.19zM179.96 315.096h90.156c2.986 0 5.421 2.426 5.421 5.417s-2.434 5.412-5.421 5.412h-90.156c-2.99 0-5.412-2.422-5.412-5.412s2.422-5.417 5.412-5.417zM327.786 282.616h-147.968c-2.99 0-5.412-2.422-5.412-5.413s2.422-5.416 5.412-5.416h147.968c2.99 0 5.421 2.426 5.421 5.416s-2.43 5.413-5.421 5.413zM327.786 239.612h-147.968c-2.99 0-5.412-2.422-5.412-5.416 0-2.99 2.422-5.417 5.412-5.417h147.968c2.99 0 5.421 2.426 5.421 5.417 0 2.995-2.43 5.416-5.421 5.416zM327.786 195.576h-147.968c-2.99 0-5.412-2.426-5.412-5.416s2.422-5.413 5.412-5.413h147.968c2.99 0 5.421 2.422 5.421 5.413s-2.43 5.416-5.421 5.416z" />
<glyph unicode="&#xe661;" d="M159.959 115.96c-5.412 0-8.484-0.439-10.094-0.736v-27.201h8.777c11.118 0 17.697 5.555 17.697 14.181 0 9.074-6.14 13.604-16.38 13.755zM252.701 115.078h-0.292c-1.459-5.848-2.922-13.308-4.531-19.017l-5.847-20.911h21.792l-6.144 20.911c-1.763 5.856-3.519 13.17-4.978 19.017zM406.268 327.343c-0.024 1.901-0.634 3.779-1.938 5.262l-79.909 91.282c-0.024 0.024-0.049 0.033-0.065 0.057-0.476 0.533-1.032 0.971-1.618 1.357-0.175 0.114-0.349 0.216-0.533 0.317-0.508 0.276-1.041 0.504-1.605 0.671-0.151 0.045-0.284 0.106-0.435 0.147-0.601 0.147-1.231 0.231-1.865 0.231h-196.397c-8.96 0-16.254-7.294-16.254-16.254v-381.969c0-8.964 7.294-16.254 16.254-16.254h268.19c8.96 0 16.254 7.29 16.254 16.254v297.988c0 0.305-0.049 0.606-0.082 0.91zM179.411 33.17c-1.609 2.784-3.954 10.821-6.871 22.963-2.633 12.284-6.871 15.652-15.945 15.795h-6.729v-38.757h-22.089v97.268c7.168 1.175 17.851 2.048 29.692 2.048 14.629 0 24.873-2.19 31.891-7.749 5.847-4.677 9.070-11.557 9.070-20.622 0-12.58-8.919-21.212-17.404-24.284v-0.439c6.871-2.779 10.675-9.358 13.157-18.428 3.072-11.113 6.144-23.983 8.046-27.79h-22.816zM274.635 33.17l-7.603 25.308h-28.229l-7.018-25.308h-23.113l30.126 98.584h29.253l30.57-98.584h-23.987zM363.435 33.17c-1.609 2.784-3.954 10.821-6.88 22.963-2.625 12.284-6.872 15.652-15.937 15.795h-6.729v-38.757h-22.089v97.268c7.168 1.175 17.843 2.048 29.692 2.048 14.628 0 24.865-2.19 31.89-7.749 5.848-4.677 9.070-11.557 9.070-20.622 0-12.58-8.928-21.212-17.412-24.284v-0.439c6.88-2.779 10.683-9.358 13.166-18.428 3.072-11.113 6.144-23.983 8.046-27.79h-22.817zM121.905 150.687v259.726h188.269v-83.163c0-4.486 3.641-8.127 8.127-8.127h71.794v-168.436h-268.19zM343.983 115.96c-5.413 0-8.485-0.439-10.094-0.736v-27.201h8.777c11.11 0 17.697 5.555 17.697 14.181 0.004 9.074-6.14 13.604-16.38 13.755zM160.581 315.815h123.112v-16.303h-123.112v16.303zM283.688 278.634h20.822v-46.080h-20.822v-19.952h-123.108v-16.283h123.108v15.36h61.558v20.874h-34.397v8.269h13.58v6.124h-13.58v7.115h13.58v6.127h-13.58v6.957h13.58v6.119h-13.58v5.368h34.397v20.878h-61.558zM176.412 291.129h91.445v-71.078h-91.445v71.079z" />
<glyph unicode="&#xe662;" d="M330.769 121.096c-4.978 0-8.192-0.443-10.094-0.882v-64.5c1.906-0.443 4.978-0.443 7.753-0.443 20.183-0.142 33.349 10.976 33.349 34.524 0.142 20.476-11.849 31.301-31.009 31.301zM406.264 327.347c-0.017 1.901-0.626 3.775-1.93 5.262l-79.912 91.286c-0.024 0.020-0.049 0.033-0.065 0.053-0.476 0.536-1.032 0.971-1.618 1.357-0.175 0.114-0.349 0.22-0.533 0.317-0.508 0.281-1.048 0.504-1.605 0.671-0.151 0.045-0.284 0.11-0.435 0.142-0.601 0.147-1.231 0.232-1.865 0.232h-196.397c-8.968 0-16.254-7.29-16.254-16.254v-381.969c0-8.96 7.286-16.254 16.254-16.254h268.19c8.96 0 16.254 7.294 16.254 16.254v297.992c0 0.305-0.049 0.606-0.086 0.91zM196.039 84.086c-7.611-7.168-18.875-10.382-32.032-10.382-2.93 0-5.563 0.142-7.611 0.435v-35.255h-22.089v97.276c6.88 1.166 16.53 2.048 30.135 2.048 13.747 0 23.548-2.633 30.135-7.896 6.286-4.978 10.524-13.166 10.524-22.817 0.004-9.663-3.21-17.851-9.061-23.41zM243.435 37.429c-11.26 0-22.374 2.93-27.936 6.002l4.539 18.428c5.994-3.072 15.206-6.144 24.714-6.144 10.24 0 15.653 4.238 15.653 10.675 0 6.144-4.681 9.651-16.522 13.897-16.38 5.705-27.063 14.771-27.063 29.103 0 16.827 14.040 29.7 37.303 29.7 11.11 0 19.301-2.341 25.157-4.978l-4.978-17.993c-3.954 1.906-10.967 4.681-20.626 4.681-9.651 0-14.332-4.389-14.332-9.509 0-6.295 5.563-9.070 18.285-13.897 17.404-6.437 25.596-15.498 25.596-29.396-0.004-16.531-12.727-30.57-39.79-30.57zM369.087 50.595c-10.382-8.635-26.173-12.731-45.483-12.731-11.556 0-19.745 0.731-25.312 1.467v96.829c8.2 1.317 18.875 2.048 30.135 2.048 18.721 0 30.866-3.365 40.375-10.533 10.24-7.603 16.676-19.745 16.676-37.153-0.004-18.871-6.884-31.886-16.392-39.928zM121.905 150.691v259.722h188.269v-83.159c0-4.486 3.641-8.127 8.127-8.127h71.794v-168.436h-268.19zM165.612 121.389c-4.531 0-7.603-0.443-9.216-0.882v-29.103c1.906-0.443 4.246-0.589 7.46-0.589 11.849 0 19.167 5.993 19.167 16.087 0 9.074-6.294 14.486-17.412 14.486zM163.666 282.811l115.83-22.154c1.341-0.256 2.942-0.017 3.543 0.541l44.121 40.379c0 0 2.873 1.723-1.211 2.503-4.084 0.78-114.879 22.097-114.879 22.097-1.357 0.26-2.95 0.017-3.543-0.536l-45.202-41.354c-0.606-0.553-0.008-1.215 1.341-1.475zM214.792 319.935l100.405-19.208-29.647-27.115-7.322 1.398c0.659 5.344 2.316 12.678-6.591 13.365-10.439 0.8-24.983-7.327-24.983-7.327s6.339 11.098-0.906 19.078c-7.262 7.981-43.101-10.663-43.101-10.663l-17.498 3.345 29.643 27.128zM276.992 298.118c1.845-0.358 3.653-0.606 5.332-0.772 1.438-0.659 3.397-1.264 5.758-1.711 6.030-1.15 12.26-0.869 13.897 0.63 1.642 1.504-1.922 3.653-7.952 4.807-2.276 0.435-4.555 0.671-6.62 0.711-0.406 0.418-1.166 0.784-2.247 0.988l-1.585 0.305c-2.027 0.386-4.32 0.061-5.433-0.703-5.128 0.724-9.553 0.691-10.5-0.183-1.138-1.048 3.048-2.869 9.35-4.071zM283.031 226.324l44.13 40.375c0 0 2.873 1.723-1.219 2.507-0.975 0.183-8.041 1.544-18.192 3.499l-20.192-18.469c-2.284-2.089-5.336-2.401-6.945-2.401-0.796 0-1.613 0.073-2.389 0.219l-93.469 17.884-22.435-20.521c-0.606-0.556 0-1.215 1.349-1.479l115.822-22.154c1.345-0.256 2.938-0.012 3.539 0.541zM329.298 233.797c-0.975 0.183-8.041 1.544-18.192 3.499l-20.192-18.464c-2.284-2.092-5.332-2.406-6.945-2.406-0.796 0-1.613 0.077-2.389 0.224l-93.476 17.883-22.435-20.524c-0.597-0.553 0-1.215 1.349-1.475l115.822-22.154c1.349-0.26 2.942-0.017 3.555 0.541l44.118 40.375c0.004-0.004 2.877 1.723-1.215 2.503z" />
<glyph unicode="&#xe663;" d="M253.96 114.412c-4.531 0-7.603-0.435-9.216-0.873v-29.111c1.906-0.435 4.246-0.585 7.46-0.585 11.849 0 19.159 5.998 19.159 16.091 0 9.070-6.286 14.478-17.404 14.478zM168.968 114.412c-4.531 0-7.603-0.435-9.216-0.873v-29.111c1.906-0.435 4.246-0.585 7.46-0.585 11.849 0 19.16 5.998 19.16 16.091 0 9.070-6.286 14.478-17.404 14.478zM406.268 327.343c-0.024 1.901-0.634 3.779-1.938 5.262l-79.909 91.282c-0.024 0.024-0.049 0.033-0.065 0.057-0.476 0.533-1.032 0.971-1.618 1.357-0.175 0.114-0.349 0.216-0.533 0.317-0.508 0.276-1.041 0.504-1.605 0.671-0.151 0.045-0.284 0.106-0.435 0.147-0.601 0.147-1.231 0.231-1.865 0.231h-196.397c-8.96 0-16.254-7.294-16.254-16.254v-381.969c0-8.964 7.294-16.254 16.254-16.254h268.19c8.96 0 16.254 7.29 16.254 16.254v297.988c0 0.305-0.049 0.606-0.082 0.91zM199.395 77.121c-7.611-7.168-18.875-10.39-32.041-10.39-2.922 0-5.555 0.151-7.603 0.439v-35.251h-22.089v97.272c6.871 1.166 16.53 2.048 30.135 2.048 13.747 0 23.548-2.633 30.126-7.899 6.294-4.974 10.532-13.161 10.532-22.817s-3.21-17.847-9.061-23.401zM284.387 77.121c-7.611-7.168-18.875-10.39-32.041-10.39-2.922 0-5.555 0.151-7.603 0.439v-35.251h-22.089v97.272c6.871 1.166 16.53 2.048 30.135 2.048 13.747 0 23.548-2.633 30.127-7.899 6.295-4.974 10.533-13.161 10.533-22.817s-3.21-17.847-9.062-23.401zM375.959 111.783h-26.913v-79.86h-22.382v79.86h-26.478v18.721h75.768v-18.721zM121.905 150.687v259.726h188.269v-83.163c0-4.486 3.641-8.127 8.127-8.127h71.794v-168.436h-268.19zM243.358 321.081c-36.75 0-66.531-29.789-66.531-66.535 0-36.742 29.781-66.527 66.531-66.527 36.742 0 66.531 29.786 66.531 66.527h-66.531v66.536zM252.383 265.046v-0.020h66.535c0 18.716-7.762 35.601-20.2 47.689l-46.336-47.669zM251.685 276.736l47.039 47.043c-13.231 13.235-29.74 19.691-47.088 19.444l0.032-66.47 0.017-0.017z" />
<glyph unicode="&#xe664;" d="M249.938 114.607c-4.978 0-8.192-0.439-10.094-0.877v-64.504c1.906-0.439 4.978-0.439 7.753-0.439 20.183-0.142 33.349 10.967 33.349 34.519 0.142 20.48-11.849 31.301-31.008 31.301zM163.771 114.895c-4.531 0-7.603-0.435-9.216-0.873v-29.111c1.906-0.435 4.246-0.585 7.452-0.585 11.857 0 19.167 5.998 19.167 16.091 0 9.070-6.294 14.478-17.404 14.478zM406.268 327.343c-0.024 1.901-0.626 3.779-1.93 5.262l-79.916 91.282c-0.017 0.024-0.049 0.033-0.065 0.057-0.476 0.533-1.024 0.971-1.609 1.357-0.175 0.114-0.358 0.216-0.541 0.317-0.508 0.276-1.041 0.504-1.605 0.671-0.142 0.045-0.284 0.106-0.435 0.147-0.601 0.147-1.231 0.231-1.857 0.231h-196.405c-8.96 0-16.254-7.294-16.254-16.254v-381.969c0-8.964 7.294-16.254 16.254-16.254h268.19c8.96 0 16.254 7.29 16.254 16.254v297.988c0 0.305-0.049 0.606-0.082 0.91zM194.19 77.605c-7.603-7.168-18.867-10.39-32.032-10.39-2.922 0-5.563 0.151-7.603 0.439v-35.251h-22.085v97.272c6.871 1.166 16.53 2.048 30.135 2.048 13.747 0 23.548-2.633 30.126-7.899 6.294-4.974 10.524-13.161 10.524-22.817s-3.21-17.847-9.066-23.401zM288.248 44.105c-10.374-8.627-26.173-12.723-45.475-12.723-11.556 0-19.744 0.731-25.311 1.459v96.833c8.192 1.313 18.875 2.048 30.135 2.048 18.712 0 30.858-3.365 40.366-10.533 10.24-7.607 16.676-19.745 16.676-37.153-0.004-18.871-6.88-31.886-16.392-39.932zM379.538 112.705h-37.888v-22.524h35.397v-18.139h-35.397v-39.639h-22.373v98.584h60.262v-18.281zM121.905 150.687v259.726h188.278v-83.163c0-4.486 3.637-8.127 8.127-8.127h71.786l0.008-168.436h-268.199zM339.383 251.985c-0.476 0.045-11.93 1.089-29.509 1.089-5.506 0-11.057-0.106-16.531-0.313-34.714 26.051-63.15 52.123-78.373 66.735 0.276 1.609 0.468 2.881 0.556 3.856 2.007 21.195-0.224 35.502-6.612 42.529-4.181 4.591-10.326 6.12-16.73 4.369-3.978-1.041-11.341-4.901-13.698-12.756-2.605-8.68 1.581-19.216 12.572-31.435 0.174-0.183 3.905-4.092 10.683-10.715-4.405-21.004-15.937-66.332-21.532-88.096-13.142-7.022-24.089-15.482-32.565-25.181l-0.556-0.634-0.357-0.764c-0.874-1.832-5.047-11.353-1.914-19.001 1.43-3.474 4.113-6.014 7.753-7.347l0.975-0.264c0 0 0.882-0.191 2.43-0.191 6.778 0 23.516 3.563 32.492 36.641l2.174 8.383c31.333 15.23 70.501 20.142 98.889 21.512 14.604-10.829 29.135-20.776 43.215-29.587l0.459-0.268c0.683-0.346 6.859-3.397 14.088-3.401v0c10.334 0 17.88 6.339 20.692 17.392l0.142 0.756c0.784 6.315-0.8 12.007-4.587 16.457-7.976 9.375-22.825 10.191-24.157 10.236zM156.229 186.059c-0.065 0.073-0.094 0.147-0.126 0.228-0.674 1.622 0.134 5.559 1.325 8.444 5.112 5.714 11.248 10.959 18.327 15.681-6.895-22.317-16.921-24.243-19.525-24.353zM200.001 334.34v0c-10.585 11.784-10.427 17.627-9.858 19.594 0.935 3.287 5.153 4.531 5.189 4.543 2.125 0.577 3.413 0.463 4.564-0.797 2.596-2.852 4.827-11.463 3.946-27.254-2.499 2.511-3.84 3.913-3.84 3.913zM194.531 233.976l0.183 0.699-0.024-0.008c5.303 20.764 12.947 51.168 17.343 70.697l0.159-0.151 0.017 0.094c14.222-13.393 36.031-32.983 62.143-53.357l-0.296-0.012 0.435-0.325c-24.601-2.081-53.98-6.928-79.957-17.636zM356.072 227.166c-1.873-6.883-5.478-7.826-8.777-7.826v0c-3.832 0-7.526 1.597-8.366 1.983-9.586 6.010-19.395 12.556-29.293 19.561 0.082 0 0.151 0 0.24 0 16.969 0 28.269-1.028 28.712-1.060 2.832-0.106 11.8-1.43 15.665-5.974 1.519-1.78 2.097-3.909 1.82-6.684z" />
<glyph unicode="&#xe665;" d="M351.309 96.126l-11.975-19.546v-0.272h20.086v19.817c0 5.364 0.276 10.87 0.691 16.652h-0.548c-2.889-5.783-5.229-11.008-8.253-16.652zM406.268 327.343c-0.024 1.901-0.634 3.779-1.93 5.262l-79.916 91.282c-0.017 0.024-0.041 0.033-0.065 0.057-0.476 0.533-1.024 0.971-1.609 1.357-0.175 0.114-0.349 0.216-0.533 0.317-0.516 0.276-1.048 0.504-1.605 0.671-0.151 0.045-0.284 0.106-0.443 0.147-0.601 0.147-1.231 0.231-1.857 0.231h-196.405c-8.96 0-16.254-7.294-16.254-16.254v-381.969c0-8.964 7.294-16.254 16.254-16.254h268.19c8.96 0 16.254 7.29 16.254 16.254v297.988c0 0.305-0.049 0.606-0.082 0.91zM209.127 39.294l-1.374 35.507c-0.423 11.134-0.825 24.633-0.825 38.115h-0.415c-2.889-11.837-6.745-25.051-10.326-35.925l-11.285-36.19h-16.372l-9.907 35.921c-3.031 10.874-6.189 24.084-8.395 36.193h-0.276c-0.548-12.519-0.959-26.836-1.65-38.392l-1.642-35.231h-19.412l5.92 92.745h27.936l9.078-30.959c2.889-10.736 5.779-22.293 7.851-33.166h0.415c2.605 10.74 5.779 22.983 8.802 33.3l9.911 30.825h27.38l5.095-92.745h-20.512zM303.819 81.819c-7.151-6.75-17.745-9.772-30.135-9.772-2.755 0-5.229 0.134-7.151 0.411v-33.158h-20.785v91.51c6.469 1.101 15.547 1.934 28.351 1.934 12.938 0 22.15-2.478 28.351-7.436 5.913-4.673 9.907-12.382 9.907-21.467-0.008-9.090-3.039-16.794-8.538-22.020zM389.978 60.619h-10.74v-21.325h-19.817v21.325h-39.627v13.629l33.849 54.492h25.596v-52.427h10.74v-15.693zM121.905 150.687v259.726h188.278v-83.163c0-4.486 3.637-8.127 8.127-8.127h71.786l0.008-168.436h-268.199zM275.192 116.907c-4.262 0-7.151-0.414-8.659-0.821v-27.388c1.78-0.411 3.982-0.553 7.017-0.553 11.142 0 18.026 5.644 18.026 15.144-0.004 8.521-5.925 13.617-16.384 13.617zM190.85 218.766h114.31v83.773h-114.31v-83.773zM231.952 285.635c0 0.443 0.26 0.865 0.659 1.056 0.415 0.203 0.898 0.151 1.256-0.13l39.128-24.974c0.276-0.236 0.435-0.573 0.435-0.926 0-0.358-0.159-0.699-0.435-0.93l-39.127-24.987c-0.215-0.166-0.468-0.256-0.732-0.256l-0.524 0.122c-0.398 0.187-0.659 0.609-0.659 1.053v49.973zM190.85 217.458v1.308h-4.145v-20.459h123.031v20.459h-4.579v-1.308h-114.306zM307.127 216.15v-15.226h-117.8v15.226h117.8zM186.706 302.539h4.145v1.308h114.31v-1.308h4.579v20.459h-123.034v-20.459zM189.326 320.382h117.8v-15.226h-117.8v15.226zM193.906 316.762h17.51v-7.416h-17.51v7.416zM216.332 316.762h17.51v-7.416h-17.51v7.416zM238.588 316.762h17.509v-7.416h-17.51v7.416zM261.006 316.762h17.51v-7.416h-17.51v7.416zM284.16 316.477h17.51v-7.42h-17.51v7.42zM194.117 212.488h17.518v-7.42h-17.517v7.42zM216.548 212.488h17.51v-7.42h-17.51v7.42zM238.804 212.488h17.509v-7.42h-17.51v7.42zM261.229 212.488h17.51v-7.42h-17.51v7.42zM284.372 212.2h17.51v-7.42h-17.51v7.42z" />
<glyph unicode="&#xe666;" d="M275.468 114.964c-4.128 0-6.928-0.398-8.387-0.793v-26.514c1.731-0.398 3.865-0.541 6.794-0.541 10.793 0 17.461 5.469 17.461 14.665-0.004 8.253-5.733 13.182-15.868 13.182zM406.264 327.343c-0.017 1.897-0.626 3.779-1.93 5.262l-79.912 91.286c-0.024 0.024-0.049 0.033-0.065 0.057-0.476 0.532-1.032 0.967-1.618 1.357-0.175 0.11-0.349 0.216-0.533 0.317-0.508 0.276-1.048 0.5-1.605 0.666-0.151 0.049-0.284 0.11-0.435 0.151-0.601 0.142-1.231 0.228-1.865 0.228h-196.397c-8.968 0-16.254-7.294-16.254-16.254v-381.969c0-8.96 7.286-16.254 16.254-16.254h268.19c8.96 0 16.254 7.294 16.254 16.254v297.988c0 0.309-0.049 0.609-0.086 0.91zM211.5 39.818l-1.333 34.373c-0.406 10.793-0.8 23.857-0.8 36.913h-0.398c-2.799-11.459-6.53-24.255-10-34.788l-10.923-35.039h-15.856l-9.594 34.788c-2.93 10.524-6.002 23.308-8.127 35.039h-0.268c-0.532-12.125-0.93-25.986-1.597-37.173l-1.605-34.113h-18.785l5.73 89.803h27.047l8.793-29.976c2.799-10.399 5.595-21.589 7.595-32.11h0.406c2.531 10.399 5.595 22.248 8.525 32.24l9.594 29.851h26.514l4.929-89.803h-19.846zM303.19 80.994c-6.928-6.538-17.188-9.468-29.184-9.468-2.666 0-5.063 0.134-6.928 0.398v-32.101h-20.126v88.601c6.27 1.073 15.064 1.873 27.453 1.873 12.524 0 21.451-2.406 27.453-7.204 5.729-4.522 9.594-11.983 9.594-20.785 0-8.789-2.934-16.258-8.261-21.313zM346.372 38.351c-11.199 0-20.659 2.93-25.722 6.127l4.137 15.19c3.596-1.865 11.858-5.327 20.118-5.327 10.524 0 15.856 5.063 15.856 11.589 0 8.525-8.534 12.397-17.461 12.397h-8.261v14.523h7.867c6.794 0.126 15.462 2.658 15.462 9.992 0 5.197-4.271 9.058-12.792 9.058-7.063 0-14.523-3.064-18.127-5.197l-4.128 14.665c5.197 3.324 15.587 6.522 26.786 6.522 18.517 0 28.777-9.732 28.777-21.589 0-9.192-5.197-16.388-15.856-20.118v-0.268c10.399-1.865 18.793-9.724 18.793-21.049-0.004-15.324-13.466-26.514-35.45-26.514zM121.905 150.687v259.726h188.269v-83.168c0-4.486 3.641-8.127 8.127-8.127h71.794v-168.436h-268.19zM313.644 250.080c-21.793 13.34-21.716 16.493-21.716 16.493-4.157-0.426-4.587-3.198-4.587-3.198v-62.882c-3.129 0.959-6.843 1.134-10.666 0.293-8.46-1.832-13.99-7.961-12.373-13.649 0.942-5.262 9.81-8.801 18.262-6.92 7.428 1.618 12.605 6.538 12.642 11.573h0.017l0.191 58.303c0 0 14.84 2.113 29.367-17.843 0 0 0.041 10.301-11.134 17.831zM231.928 261.583c0-7.371 6.002-13.373 13.373-13.373s13.365 6.002 13.365 13.373-5.994 13.365-13.365 13.365-13.373-5.993-13.373-13.365zM219.721 261.583c0-14.104 11.476-25.579 25.579-25.579 14.096 0 25.572 11.476 25.572 25.579s-11.476 25.579-25.572 25.579c-14.105-0.004-25.579-11.479-25.579-25.579zM264.562 261.583c0-10.618-8.635-19.261-19.261-19.261-10.618 0-19.269 8.643-19.269 19.261s8.651 19.261 19.269 19.261c10.626 0 19.261-8.643 19.261-19.261zM275.752 205.861c2.056 0.451 3.97 0.699 6.229 0.666l0.008 7.57c-10.167-7.875-22.873-12.613-36.69-12.613-33.142 0-60.095 26.962-60.095 60.095s26.953 60.095 60.095 60.095c33.024 0 59.887-26.786 60.070-59.77 1.666-1.174 3.722-2.548 6.136-4.096 0.073 1.256 0.191 2.499 0.191 3.771 0 36.612-29.786 66.406-66.397 66.406-36.629 0-66.413-29.793-66.413-66.406s29.786-66.406 66.413-66.406c5.653 0 11.101 0.784 16.339 2.117 3.051 4.173 8.082 7.265 14.113 8.57zM301.291 239.937l-0.049-13.982c2.856 4.486 5.197 9.317 6.928 14.445-2.117 1.3-4.047 2.158-5.721 2.698-0.346-1.073-0.76-2.113-1.158-3.161z" />
<glyph unicode="&#xe667;" d="M270.596 116.976c-12.54 0-19.85-11.935-19.85-27.88 0-16.075 7.546-27.4 19.968-27.4 12.548 0 19.728 11.935 19.728 27.884 0.004 14.73-7.063 27.396-19.846 27.396zM406.268 327.347c-0.024 1.901-0.634 3.775-1.938 5.262l-79.909 91.286c-0.024 0.020-0.049 0.033-0.065 0.053-0.476 0.536-1.032 0.971-1.618 1.357-0.175 0.114-0.349 0.22-0.533 0.317-0.508 0.281-1.041 0.504-1.605 0.671-0.151 0.045-0.284 0.11-0.435 0.142-0.601 0.147-1.231 0.232-1.865 0.232h-196.397c-8.96 0-16.254-7.29-16.254-16.254v-381.969c0-8.96 7.294-16.254 16.254-16.254h268.19c8.96 0 16.254 7.294 16.254 16.254v297.992c0 0.305-0.049 0.606-0.082 0.91zM202.517 48.303l-1.223 31.415c-0.365 9.862-0.732 21.796-0.732 33.731h-0.365c-2.556-10.471-5.97-22.171-9.126-31.788l-9.984-32.024h-14.49l-8.769 31.788c-2.682 9.618-5.486 21.305-7.428 32.024h-0.248c-0.483-11.081-0.85-23.751-1.459-33.971l-1.459-31.175h-17.168l5.238 82.067h24.714l8.042-27.392c2.556-9.5 5.112-19.728 6.936-29.351h0.365c2.316 9.5 5.12 20.338 7.794 29.469l8.769 27.274h24.231l4.506-82.067h-18.143zM269.747 46.962c-24.357 0-38.603 18.387-38.603 41.76 0 24.605 15.706 42.988 39.936 42.988 25.206 0 38.969-18.879 38.969-41.521 0-26.913-16.319-43.228-40.301-43.228zM362.419 48.303h-21.675l-26.303 82.067h20.334l9.984-34.702c2.8-9.736 5.356-19.118 7.31-29.351h0.365c2.072 9.866 4.628 19.611 7.428 28.989l10.467 35.064h19.728l-27.64-82.067zM121.905 150.691v259.722h188.269v-83.159c0-4.486 3.641-8.127 8.127-8.127h71.794v-168.436h-268.19zM256 344.259c-43.166 0-78.166-34.995-78.166-78.161s34.999-78.166 78.166-78.166 78.166 34.995 78.166 78.166-34.999 78.161-78.166 78.161zM207.86 248.633c-10.805 0.699-19.005 10.033-18.306 20.829 0.699 10.813 10.024 19.009 20.841 18.31 10.797-0.695 19.001-10.033 18.285-20.846-0.683-10.797-10.012-18.993-20.822-18.294zM250.514 199.924c-10.801 0.691-19.001 10.021-18.306 20.834 0.703 10.796 10.037 18.997 20.838 18.29 10.788-0.699 19.017-10.020 18.302-20.833-0.695-10.796-10.012-18.993-20.834-18.29zM245.061 265.562c0 5.856 4.746 10.626 10.614 10.626 5.856 0 10.626-4.771 10.626-10.626 0-5.851-4.771-10.618-10.626-10.618-5.868 0-10.614 4.767-10.614 10.618zM256.086 293.136c-10.801 0.695-19.001 10.024-18.327 20.838 0.711 10.805 10.033 19.001 20.85 18.29 10.809-0.691 19.001-10.012 18.302-20.821-0.695-10.809-10.029-18.997-20.825-18.306zM297.772 242.834c-10.805 0.699-19.005 10.021-18.318 20.829 0.711 10.813 10.021 19.001 20.85 18.294 10.796-0.683 18.997-10.009 18.302-20.829-0.711-10.801-10.033-18.997-20.834-18.294z" />
</font>
</defs>
</svg>
